<svg width="28" height="23" viewBox="0 0 28 23" fill="none" xmlns="http://www.w3.org/2000/svg">
<path d="M25.9 2.70588H12.299L11.515 1.14324C11.3428 0.800415 11.0742 0.511372 10.74 0.30919C10.4057 0.107008 10.0193 -0.000143363 9.625 1.43958e-07H2.1C1.54305 1.43958e-07 1.0089 0.213813 0.615076 0.594401C0.221249 0.97499 0 1.49118 0 2.02941V20.9706C0 21.5088 0.221249 22.025 0.615076 22.4056C1.0089 22.7862 1.54305 23 2.1 23H25.9C26.457 23 26.9911 22.7862 27.3849 22.4056C27.7787 22.025 28 21.5088 28 20.9706V4.73529C28 4.19706 27.7787 3.68087 27.3849 3.30028C26.9911 2.91969 26.457 2.70588 25.9 2.70588ZM26.6 20.9706C26.6 21.15 26.5263 21.3221 26.395 21.4489C26.2637 21.5758 26.0857 21.6471 25.9 21.6471H2.1C1.91435 21.6471 1.7363 21.5758 1.60503 21.4489C1.47375 21.3221 1.4 21.15 1.4 20.9706V2.02941C1.4 1.85 1.47375 1.67794 1.60503 1.55108C1.7363 1.42421 1.91435 1.35294 2.1 1.35294H9.625C9.75619 1.35269 9.88482 1.38807 9.99621 1.45505C10.1076 1.52203 10.1973 1.61791 10.255 1.73177L12.208 5.62147C12.3802 5.96429 12.6488 6.25333 12.983 6.45552C13.3173 6.6577 13.7037 6.76485 14.098 6.76471H24.5C24.6857 6.76471 24.8637 6.69344 24.995 6.56657C25.1262 6.43971 25.2 6.26765 25.2 6.08824C25.2 5.90882 25.1262 5.73676 24.995 5.6099C24.8637 5.48304 24.6857 5.41176 24.5 5.41176H14.098C13.9668 5.41202 13.8382 5.37664 13.7268 5.30966C13.6154 5.24268 13.5257 5.14679 13.468 5.03294L12.978 4.05882H25.9C26.0857 4.05882 26.2637 4.13009 26.395 4.25696C26.5263 4.38382 26.6 4.55588 26.6 4.73529V20.9706ZM20.3 12.1765C19.8667 12.1776 19.4445 12.3083 19.0911 12.5505C18.7376 12.7927 18.4704 13.1347 18.326 13.5294H17.43C17.3283 13.0605 17.1248 12.6177 16.8327 12.2306C16.5407 11.8434 16.1669 11.5206 15.736 11.2835C15.9721 10.9484 16.0989 10.5525 16.1 10.1471C16.1 9.60882 15.8788 9.09264 15.4849 8.71205C15.0911 8.33146 14.557 8.11765 14 8.11765C13.443 8.11765 12.9089 8.33146 12.5151 8.71205C12.1212 9.09264 11.9 9.60882 11.9 10.1471C11.9011 10.5525 12.0279 10.9484 12.264 11.2835C11.8331 11.5206 11.4593 11.8434 11.1673 12.2306C10.8752 12.6177 10.6717 13.0605 10.57 13.5294H9.674C9.50887 13.0781 9.18395 12.6977 8.75666 12.4554C8.32938 12.2132 7.82723 12.1247 7.33899 12.2057C6.85074 12.2867 6.40783 12.5318 6.08853 12.8978C5.76923 13.2638 5.5941 13.7272 5.5941 14.2059C5.5941 14.6846 5.76923 15.1479 6.08853 15.5139C6.40783 15.88 6.85074 16.1251 7.33899 16.2061C7.82723 16.287 8.32938 16.1986 8.75666 15.9563C9.18395 15.7141 9.50887 15.3337 9.674 14.8824H10.57C10.6717 15.3513 10.8752 15.794 11.1673 16.1812C11.4593 16.5684 11.8331 16.8912 12.264 17.1282C12.0279 17.4634 11.9011 17.8592 11.9 18.2647C11.9 18.8029 12.1212 19.3191 12.5151 19.6997C12.9089 20.0803 13.443 20.2941 14 20.2941C14.557 20.2941 15.0911 20.0803 15.4849 19.6997C15.8788 19.3191 16.1 18.8029 16.1 18.2647C16.0989 17.8592 15.9721 17.4634 15.736 17.1282C16.1669 16.8912 16.5407 16.5684 16.8327 16.1812C17.1248 15.794 17.3283 15.3513 17.43 14.8824H18.326C18.4544 15.2334 18.6803 15.5435 18.9789 15.7787C19.2774 16.014 19.6372 16.1653 20.0189 16.2162C20.4005 16.2671 20.7892 16.2156 21.1426 16.0672C21.4959 15.9189 21.8003 15.6795 22.0222 15.3752C22.2442 15.0709 22.3753 14.7135 22.4012 14.3421C22.427 13.9706 22.3466 13.5994 22.1688 13.2692C21.991 12.9389 21.7226 12.6623 21.393 12.4695C21.0634 12.2768 20.6852 12.1754 20.3 12.1765ZM7.7 14.8824C7.56155 14.8824 7.42621 14.8427 7.3111 14.7683C7.19599 14.694 7.10627 14.5884 7.05328 14.4648C7.0003 14.3411 6.98644 14.2051 7.01345 14.0739C7.04046 13.9427 7.10713 13.8222 7.20503 13.7275C7.30292 13.6329 7.42765 13.5685 7.56344 13.5424C7.69922 13.5163 7.83997 13.5297 7.96788 13.5809C8.09579 13.6321 8.20511 13.7188 8.28203 13.8301C8.35894 13.9413 8.4 14.0721 8.4 14.2059C8.4 14.3853 8.32625 14.5574 8.19497 14.6842C8.0637 14.8111 7.88565 14.8824 7.7 14.8824ZM13.3 10.1471C13.3 10.0133 13.3411 9.88248 13.418 9.77123C13.4949 9.65999 13.6042 9.57328 13.7321 9.52208C13.86 9.47088 14.0008 9.45748 14.1366 9.48359C14.2724 9.50969 14.3971 9.57411 14.495 9.66872C14.5929 9.76333 14.6595 9.88386 14.6865 10.0151C14.7136 10.1463 14.6997 10.2823 14.6467 10.4059C14.5937 10.5295 14.504 10.6352 14.3889 10.7095C14.2738 10.7839 14.1384 10.8235 14 10.8235C13.8143 10.8235 13.6363 10.7523 13.505 10.6254C13.3737 10.4985 13.3 10.3265 13.3 10.1471ZM14.7 18.2647C14.7 18.3985 14.6589 18.5293 14.582 18.6405C14.5051 18.7518 14.3958 18.8385 14.2679 18.8897C14.14 18.9409 13.9992 18.9543 13.8634 18.9282C13.7276 18.9021 13.6029 18.8377 13.505 18.743C13.4071 18.6484 13.3405 18.5279 13.3134 18.3967C13.2864 18.2655 13.3003 18.1294 13.3533 18.0058C13.4063 17.8822 13.496 17.7766 13.6111 17.7022C13.7262 17.6279 13.8616 17.5882 14 17.5882C14.1857 17.5882 14.3637 17.6595 14.495 17.7864C14.6263 17.9132 14.7 18.0853 14.7 18.2647ZM14 16.2353C13.5847 16.2353 13.1786 16.1163 12.8333 15.8933C12.488 15.6703 12.2188 15.3533 12.0599 14.9825C11.9009 14.6117 11.8593 14.2036 11.9404 13.81C12.0214 13.4163 12.2214 13.0547 12.5151 12.7709C12.8088 12.4871 13.1829 12.2938 13.5903 12.2155C13.9977 12.1372 14.4199 12.1773 14.8036 12.3309C15.1874 12.4846 15.5153 12.7447 15.7461 13.0784C15.9768 13.4121 16.1 13.8045 16.1 14.2059C16.1 14.7441 15.8788 15.2603 15.4849 15.6409C15.0911 16.0215 14.557 16.2353 14 16.2353ZM20.3 14.8824C20.1616 14.8824 20.0262 14.8427 19.9111 14.7683C19.796 14.694 19.7063 14.5884 19.6533 14.4648C19.6003 14.3411 19.5864 14.2051 19.6134 14.0739C19.6405 13.9427 19.7071 13.8222 19.805 13.7275C19.9029 13.6329 20.0276 13.5685 20.1634 13.5424C20.2992 13.5163 20.44 13.5297 20.5679 13.5809C20.6958 13.6321 20.8051 13.7188 20.882 13.8301C20.9589 13.9413 21 14.0721 21 14.2059C21 14.3853 20.9263 14.5574 20.795 14.6842C20.6637 14.8111 20.4857 14.8824 20.3 14.8824Z" fill="#586EBA" style="fill:#586EBA;fill:color(display-p3 0.3451 0.4314 0.7294);fill-opacity:1;"/>
</svg>
