<svg width="23" height="28" viewBox="0 0 23 28" fill="none" xmlns="http://www.w3.org/2000/svg">
<path fill-rule="evenodd" clip-rule="evenodd" d="M18.9126 24.0611C17.2469 24.0611 15.0901 23.2277 13.3858 22.7696C15.5259 21.9703 17.592 21.2445 19.2266 20.7888C20.3433 20.4776 21.744 21.0545 22.4414 20.145C22.7672 19.8191 22.5442 19.0438 21.7556 18.4453C21.9743 17.5253 21.7822 16.7954 20.7664 16.792C19.3549 16.7872 19.1653 18.0641 18.127 18.6664C16.6854 19.5027 13.5572 20.8279 10.6225 21.911C8.95448 21.2798 6.06434 20.1825 4.37239 19.2772C4.13524 19.1503 3.43951 18.4959 3.03282 17.7672C2.38268 16.603 1.33131 16.6066 0.934873 17.0957C0.477653 17.6596 0.85941 18.2203 0.85941 18.8133C-0.079444 19.3845 -0.464956 20.6399 0.830556 20.9235C1.36853 20.9753 2.46787 20.9749 3.01046 21.0828C4.78521 21.4362 6.6146 22.0635 8.14334 22.7813C6.42578 23.3486 5.01741 23.7268 4.42531 23.7179C3.5358 23.7047 2.63707 23.5417 1.81704 23.4442C0.388361 23.2747 -0.695103 24.4713 1.11636 25.5913C1.42931 25.7848 1.41804 25.9116 1.34565 26.241C1.03151 27.6725 1.65007 28.3806 2.79704 27.6603C3.55117 27.2397 4.26909 26.2765 5.23851 25.9084C6.85995 25.2931 8.84914 24.5053 10.896 23.7158C13.1825 24.5483 15.7208 25.4348 17.9816 26.321C18.992 26.717 19.5042 27.9187 20.7449 27.9213C21.5625 27.9228 21.6969 26.9188 21.5531 26.2818C21.3812 25.5206 22.2495 25.6058 22.4877 24.9224C22.8133 23.9871 21.779 23.5885 21.1352 23.6131C20.1838 23.6503 20.0384 24.0611 18.9126 24.0611Z" fill="black" style="fill:black;fill-opacity:1;"/>
<path fill-rule="evenodd" clip-rule="evenodd" d="M11.0776 17.4965C11.0615 17.2964 11.1331 17.0207 11.2482 16.5508C11.2482 16.5508 10.6421 16.5508 10.5864 16.5508C10.5309 16.5508 10.7104 17.3293 10.6702 17.4685C10.6368 17.5859 10.5553 17.7061 10.4034 17.863C10.3711 17.8963 10.3235 17.5214 10.303 17.3462C10.2752 17.1072 10.4932 16.551 10.4932 16.551C10.3706 16.551 9.7184 16.4448 9.74009 16.4663C9.82562 16.8397 9.79694 17.0468 9.77082 17.294C9.75887 17.4062 9.74743 17.5264 9.74743 17.6746C9.57448 17.8316 9.32333 17.5089 9.33101 17.3444C9.3375 17.21 9.54648 16.8453 9.60401 16.4074C9.60709 16.3833 9.19135 16.257 9.15789 16.2237C8.9496 16.2237 8.95438 16.3102 8.8125 16.4521C8.73243 16.5324 8.84545 17.1772 8.9023 17.2971C9.08755 17.6856 8.06316 17.169 7.77889 16.7396C7.22845 15.9095 7.31143 14.6203 7.31143 14.3938C7.31143 14.0192 7.31143 13.6448 7.31143 13.2702C6.4243 14.1761 6.03555 13.164 5.53172 12.704C5.53172 14.1124 6.54945 15.2459 6.84413 16.5511C6.89313 16.7675 7.04731 16.796 7.12277 17.1084C7.2614 17.681 7.35274 17.8117 7.02374 18.6093C7.0164 18.6276 7.24706 18.7819 7.3116 18.9871C7.83796 18.9871 8.44047 19.3607 8.81267 19.7329C9.46384 20.3841 10.6655 20.8459 11.2487 19.7329C11.6885 20.4947 12.6552 20.5043 13.3618 20.0056C14.056 19.5161 14.3924 18.9871 15.3654 18.9871C15.3939 18.8116 15.4106 18.7346 15.4639 18.6093C15.0457 18.2298 15.2184 17.5779 15.3654 17.1084C15.3981 17.0784 15.4311 17.0483 15.4639 17.0184C15.4639 16.63 16.9651 14.3144 16.9651 12.8029C16.9651 12.2893 16.3259 14.0636 15.2754 13.36C15.1489 13.2755 15.2395 13.635 15.2754 14.4837C15.2948 14.9427 15.191 16.6203 14.3406 16.9196C14.2126 16.9648 14.0492 17.2358 13.9773 17.6191C13.9773 17.6191 13.6987 17.4536 13.6843 17.3959C13.5696 16.9636 13.7444 16.8723 13.6843 16.5513C13.6025 16.1132 13.1163 16.3881 12.8339 16.4364C12.7605 16.4489 13.0033 17.0282 13.1108 17.4594C13.0897 17.6443 12.9323 17.8006 12.8394 17.8634C12.7806 17.9033 12.7349 17.5748 12.7236 17.5224C12.6746 17.2899 12.7007 16.8986 12.7007 16.4506C12.7007 16.4009 12.1612 16.53 12.1274 16.5406C12.0858 16.5535 12.2278 17.398 12.2353 17.4705C12.2524 17.6367 12.1838 17.8024 12.0842 17.9534C11.948 17.863 11.8604 17.694 11.8592 17.4528C11.858 17.2566 12.0161 16.9821 12.0161 16.5404C12.0161 16.5404 11.4184 16.526 11.3634 16.526C11.3084 16.526 11.5019 17.2901 11.5193 17.4861C11.5413 17.7405 11.4853 17.9532 11.2487 17.9532C11.012 17.9532 11.0802 17.5265 11.0776 17.4965ZM8.77852 10.4004C7.76694 10.4004 6.94691 9.6756 6.94691 8.78182C6.94691 7.88787 7.76694 7.16328 8.77852 7.16328C9.79011 7.16328 10.6101 7.88787 10.6101 8.78182C10.6101 9.67577 9.79011 10.4004 8.77852 10.4004ZM13.8076 10.4004C12.7958 10.4004 11.9758 9.6756 11.9758 8.78182C11.9758 7.88787 12.7958 7.16328 13.8076 7.16328C14.8192 7.16328 15.6392 7.88787 15.6392 8.78182C15.6392 9.67577 14.8192 10.4004 13.8076 10.4004ZM11.2482 14.3934C11.0656 14.5703 10.9605 14.6068 10.9605 14.8607C11.3154 15.1841 11.1345 15.8107 11.2447 16.2629C10.8307 16.2629 10.6118 16.1731 10.2035 16.1731C10.2035 15.6075 10.6194 14.7982 10.2142 14.3934C10.1514 14.3934 10.0884 14.3934 10.0255 14.3934C9.61904 15.2464 10.0527 14.9907 10.0527 16.166C9.60965 16.166 9.3206 16.0296 8.90179 15.8945C8.90179 15.3045 9.1806 14.8387 9.1806 14.3036C9.0575 14.3636 8.93491 14.4231 8.81182 14.4834C8.81182 15.039 9.0196 15.3273 8.58167 15.7651C8.53062 15.8515 8.2916 15.9597 8.15569 15.9845C7.73552 15.6032 7.84974 15.0383 7.77821 14.5823C7.69677 14.0648 8.05684 13.6683 8.05684 13.171C8.2764 12.7435 8.16987 12.4013 7.40055 12.2647C6.30684 12.1859 3.5625 11.8791 3.5625 11.2025C4.01272 10.7522 4.22682 10.6916 4.96472 10.7352C6.61689 10.8318 4.8254 8.43694 4.68608 8.1105C4.16672 6.89131 4.31611 7.05248 4.40745 5.67433C4.93587 -2.29747 18.3928 -1.53362 18.1778 5.86316C18.1491 6.84607 18.5818 7.43987 17.6962 8.39802C17.2775 8.8508 17.094 9.33482 16.9644 10.0789C16.1502 11.3676 18.7737 10.5815 19.0229 11.3015C18.2244 12.0998 16.527 12.0073 15.4632 12.2362C14.7089 12.4445 14.441 12.9726 14.5284 13.3597C14.6531 13.9116 14.9185 14.2681 14.7084 14.8609C14.931 15.286 14.638 15.7552 14.3399 16.0833C14.0365 15.9246 13.8718 15.7992 13.678 15.4414C13.678 15.1351 13.6836 14.8819 13.6836 14.5823C13.5815 14.4587 13.4631 14.3936 13.3171 14.3936C13.2618 14.9886 13.6389 15.4737 13.6623 15.9917C13.2853 16.1212 13.0128 16.1731 12.612 16.1731C12.3634 15.3256 12.8575 14.9814 12.3712 14.3934C12.0451 14.6898 12.4397 15.6649 12.4397 16.1731C12.0706 16.2921 11.7455 16.2486 11.3593 16.2486C11.3593 15.7304 11.2278 15.2491 11.6163 14.8607C11.6164 14.6 11.4764 14.502 11.2482 14.3934ZM11.179 11.8181C11.2722 11.5414 11.4454 11.3693 11.614 11.1217C12.2772 11.4367 12.4814 13.0052 11.9263 13.5603C11.6062 13.4713 11.4134 13.368 11.2482 12.8924C11.0518 13.298 10.9024 13.466 10.4525 13.5078C10.0874 12.6439 10.0693 11.9677 10.7136 11.1126C11.0119 11.31 11.1097 11.4975 11.179 11.8181Z" fill="black" style="fill:black;fill-opacity:1;"/>
</svg>
