<svg width="83" height="84" viewBox="0 0 83 84" fill="none" xmlns="http://www.w3.org/2000/svg">
<rect width="83" height="84" rx="19" fill="white" style="fill:white;fill-opacity:1;"/>
<path d="M57.9522 61.0835C58.3428 61.3605 58.6438 61.8211 58.7314 62.2953C58.7991 62.9881 58.707 63.4601 58.3101 64.0313C57.998 64.41 57.5543 64.6754 57.0708 64.7549C56.4418 64.8006 55.9492 64.7221 55.4524 64.3205C54.948 63.8654 54.7249 63.4507 54.6807 62.771C54.68 62.2813 54.8116 61.9199 55.0987 61.528C55.1333 61.4762 55.1678 61.4244 55.2033 61.3711C55.988 60.5428 57.0141 60.5322 57.9522 61.0835Z" fill="black" style="fill:black;fill-opacity:1;"/>
<path d="M49.9596 60.5122C50.2516 60.6152 50.5085 60.7699 50.7738 60.9268C50.8194 60.9532 50.8651 60.9797 50.912 61.007C50.9559 61.0328 50.9999 61.0587 51.0451 61.0853C51.0848 61.1086 51.1245 61.132 51.1655 61.156C51.375 61.2971 51.375 61.2971 51.4536 61.4086C51.4789 61.6954 51.4379 61.9315 51.3549 62.2053C51.3334 62.2768 51.3119 62.3484 51.2898 62.4221C51.266 62.4988 51.2422 62.5756 51.2183 62.6523C51.1937 62.7326 51.1691 62.813 51.1445 62.8933C50.5461 64.8358 49.8639 66.7835 48.8947 68.5747C48.7778 68.7914 48.6697 69.0115 48.5628 69.2333C48.3923 69.5774 48.2021 69.9062 48.0025 70.2342C47.9743 70.2808 47.9461 70.3273 47.917 70.3753C47.8901 70.419 47.8631 70.4626 47.8354 70.5076C47.8115 70.5464 47.7875 70.5852 47.7629 70.6251C47.6874 70.733 47.6052 70.8202 47.5095 70.9102C47.4504 70.8905 47.3912 70.8708 47.3302 70.8505C47.3254 70.8147 47.3206 70.779 47.3157 70.7421C47.2932 70.5753 47.2707 70.4085 47.2481 70.2417C47.24 70.1816 47.2318 70.1216 47.2235 70.0597C47.1795 69.7362 47.1326 69.4136 47.08 69.0913C46.9568 68.2693 47.2964 67.6887 47.6402 66.955C47.9841 66.2127 48.2896 65.4578 48.5852 64.6953C48.603 64.6501 48.6207 64.6048 48.639 64.5582C49.0674 63.4676 49.3928 62.3477 49.6809 61.2129C49.7094 61.1023 49.7094 61.1023 49.7386 60.9893C49.7553 60.9232 49.7721 60.8571 49.7893 60.789C49.8401 60.6317 49.8401 60.6317 49.9596 60.5122Z" fill="black" style="fill:black;fill-opacity:1;"/>
<path d="M45.7766 54.7751C46.0295 54.9138 46.2488 55.0859 46.4745 55.264C46.5979 55.3607 46.7225 55.455 46.8485 55.5483C47.0257 55.6805 47.1991 55.8167 47.3714 55.9554C48.1668 56.5946 48.9853 57.196 49.8304 57.7679C50.0838 57.94 50.3335 58.1158 50.5804 58.2972C50.9106 58.5385 51.2489 58.7654 51.5918 58.9881C51.6517 59.0271 51.7116 59.0661 51.7733 59.1062C52.2162 59.3927 52.6659 59.6584 53.1269 59.9144C53.2293 59.9749 53.3314 60.0359 53.4332 60.0974C54.0624 60.482 54.0624 60.482 54.7142 60.8257C54.8874 60.9139 54.9722 60.9725 55.0989 61.1096C55.0132 61.2888 54.9142 61.4537 54.8076 61.6213C54.6174 61.9341 54.4941 62.2561 54.3818 62.6036C54.1328 62.5718 53.9493 62.5194 53.732 62.3944C53.6751 62.3621 53.6183 62.3298 53.5597 62.2966C53.4957 62.2598 53.4318 62.2231 53.3659 62.1852C53.2915 62.1437 53.2169 62.1022 53.1423 62.0608C52.1359 61.5017 51.161 60.8986 50.2048 60.2576C50.0332 60.1426 49.861 60.0285 49.6884 59.9149C49.2296 59.6122 48.7788 59.3056 48.3422 58.9713C48.1434 58.8209 47.9409 58.6765 47.7374 58.5325C47.4575 58.334 47.1828 58.1309 46.9136 57.9179C46.7891 57.8202 46.6622 57.7262 46.5348 57.6324C46.0428 57.2649 46.0428 57.2649 45.9943 56.981C45.9878 56.9303 45.9814 56.8797 45.9747 56.8275C45.9674 56.7713 45.96 56.715 45.9525 56.6571C45.9449 56.5981 45.9374 56.5391 45.9297 56.4783C45.8801 56.0888 45.8238 55.7047 45.7408 55.3208C45.7099 55.1565 45.704 55.0014 45.7168 54.8349C45.7365 54.8152 45.7562 54.7955 45.7766 54.7751Z" fill="black" style="fill:black;fill-opacity:1;"/>
<path d="M62.4496 50.891C62.5775 51.0411 62.5775 51.0411 62.7035 51.2309C62.7264 51.2652 62.7493 51.2995 62.7729 51.3348C63.9145 53.0651 64.7885 54.9603 65.4375 56.9267C65.4528 56.9728 65.468 57.019 65.4837 57.0666C65.7311 57.8264 65.9048 58.5887 66.0351 59.3768C66.0467 59.4429 66.0584 59.5091 66.0703 59.5773C66.2376 61.0636 66.0484 62.5515 65.0948 63.7499C64.43 64.4801 63.3517 64.8824 62.3825 64.9467C62.1769 64.9525 61.9718 64.954 61.7661 64.953C61.6923 64.9527 61.6186 64.9524 61.5426 64.9521C60.5447 64.9395 59.6365 64.7439 58.6848 64.4563C58.6437 64.3218 58.6437 64.3218 58.625 64.1575C58.7048 64.0373 58.7048 64.0373 58.8043 63.9184C58.9335 63.5887 58.9987 63.2523 59.0433 62.9025C59.063 62.8828 59.0828 62.8631 59.1031 62.8428C59.553 62.8463 59.9936 62.9439 60.4313 63.0389C61.435 63.2301 62.5631 63.2868 63.4655 62.7382C63.938 62.384 64.1754 61.9469 64.2831 61.3653C64.4612 60.0896 64.188 58.7861 63.7643 57.584C63.7519 57.547 63.7395 57.51 63.7267 57.4719C63.2849 56.1571 62.6813 54.8645 62.0313 53.6399C62.0108 53.6011 61.9903 53.5624 61.9691 53.5224C61.6897 52.9978 61.381 52.5099 61.0298 52.0306C60.597 51.438 60.597 51.438 60.597 51.1301C60.8752 51.059 61.1535 50.989 61.4324 50.9207C61.5347 50.8955 61.637 50.87 61.7392 50.8443C61.79 50.8326 61.8408 50.8209 61.8931 50.8089C61.9364 50.7985 61.9798 50.7882 62.0245 50.7776C62.2003 50.7691 62.2956 50.805 62.4496 50.891Z" fill="black" style="fill:black;fill-opacity:1;"/>
<path d="M45.551 50.5265C45.6126 50.5267 45.6743 50.5269 45.7378 50.5271C45.8346 50.5279 45.8346 50.5279 45.9334 50.5286C46.0309 50.529 46.0309 50.529 46.1304 50.5295C46.2913 50.5302 46.4522 50.5312 46.6131 50.5324C46.6131 50.7714 46.6131 50.7714 46.4731 50.9238C46.4108 50.9796 46.3479 51.0345 46.2845 51.0889C46.2519 51.1176 46.2193 51.1462 46.1857 51.1758C46.1201 51.2334 46.0543 51.2909 45.9883 51.348C45.9068 51.4193 45.8274 51.4929 45.7483 51.5667C45.6864 51.6241 45.6864 51.6241 45.6234 51.6827C45.5876 51.7163 45.5517 51.7499 45.5148 51.7845C45.4829 51.8052 45.4509 51.8258 45.418 51.8471C45.3588 51.8274 45.2996 51.8076 45.2387 51.7873C45.1423 51.3831 45.1033 51.0075 45.1192 50.5921C45.272 50.5157 45.3802 50.5256 45.551 50.5265Z" fill="black" style="fill:black;fill-opacity:1;"/>
<path d="M51.0354 50.2935C51.0941 50.5761 51.0963 50.8401 51.0765 51.1263C51.0744 51.1668 51.0723 51.2073 51.0701 51.249C51.0524 51.5253 50.9995 51.7647 50.9159 52.0265C50.432 52.1405 49.9509 52.1837 49.4556 52.2169C49.38 52.2226 49.3044 52.2283 49.2265 52.2341C48.668 52.2731 48.668 52.2731 48.4658 52.2057C48.4987 51.9716 48.6049 51.8668 48.7721 51.7053C48.8449 51.6348 48.8449 51.6348 48.9191 51.5629C49.0723 51.4206 49.2288 51.2838 49.389 51.1497C49.5567 51.0061 49.7181 50.8522 49.8533 50.6775C50.0915 50.3915 50.3327 50.3534 50.6944 50.307C50.8562 50.2935 50.8562 50.2935 51.0354 50.2935Z" fill="black" style="fill:black;fill-opacity:1;"/>
<path d="M51.3939 46.4688C51.401 47.0181 51.3943 47.5668 51.3752 48.1159C51.3732 48.1989 51.3732 48.1989 51.3711 48.2837C51.369 48.3369 51.3669 48.39 51.3647 48.4448C51.3631 48.4916 51.3616 48.5384 51.36 48.5866C51.2842 49.0354 51.0587 49.2881 50.7426 49.5956C50.7024 49.6355 50.6623 49.6755 50.6209 49.7167C50.4932 49.8435 50.3646 49.9694 50.2361 50.0954C50.1501 50.1806 50.0642 50.2659 49.9783 50.3513C49.8958 50.4331 49.8131 50.5149 49.7304 50.5965C49.692 50.6345 49.6536 50.6725 49.614 50.7116C49.4183 50.9032 49.22 51.0811 49.0035 51.2495C48.87 51.3794 48.7399 51.5123 48.6097 51.6456C48.3977 51.8605 48.1793 52.0628 47.9505 52.2598C47.7329 52.4513 47.5214 52.6492 47.3097 52.8472C47.1234 53.0206 46.9324 53.1829 46.7327 53.341C46.6871 53.3866 46.6415 53.4322 46.5945 53.4792C46.3082 53.7655 46.017 54.0462 45.657 54.2374C45.5155 53.9452 45.4839 53.6404 45.4404 53.3223C45.4324 53.2678 45.4244 53.2133 45.4161 53.1572C45.3712 52.8372 45.3377 52.5286 45.3582 52.2056C45.489 52.045 45.489 52.045 45.657 51.9068C45.7567 51.8073 45.8563 51.7077 45.9558 51.608C46.0893 51.4812 46.2243 51.356 46.3592 51.2308C46.4387 51.1568 46.5181 51.0828 46.5975 51.0088C46.6597 50.9509 46.6597 50.9509 46.723 50.8919C46.9445 50.6853 47.1655 50.4782 47.3863 50.2709C47.4477 50.2134 47.4477 50.2134 47.5103 50.1548C47.7565 49.9235 47.9972 49.6878 48.2341 49.4469C48.3508 49.3327 48.472 49.2262 48.5964 49.1205C48.7385 48.9987 48.8643 48.8784 48.9811 48.7321C49.1328 48.5485 49.2971 48.4114 49.4816 48.2615C49.6385 48.1121 49.7781 47.9657 49.9111 47.7946C49.9469 47.7515 49.9826 47.7084 50.0194 47.6639C50.0589 47.6639 50.0983 47.6639 50.1389 47.6639C50.1784 47.585 50.2178 47.5062 50.2585 47.4249C50.2979 47.4249 50.3373 47.4249 50.378 47.4249C50.4174 47.346 50.4569 47.2671 50.4975 47.1859C50.5369 47.1859 50.5764 47.1859 50.617 47.1859C50.6319 47.1517 50.6468 47.1175 50.6621 47.0822C50.7475 46.9268 50.8469 46.8185 50.9718 46.6928C51.0131 46.6506 51.0543 46.6084 51.0967 46.5649C51.2146 46.4688 51.2146 46.4688 51.3939 46.4688Z" fill="black" style="fill:black;fill-opacity:1;"/>
<path d="M56.892 43.2419C57.343 43.4027 57.6594 43.9405 57.9303 44.3101C58.1225 44.572 58.325 44.8131 58.5466 45.0496C59.2226 45.7716 59.2226 45.7716 59.2226 45.9908C59.262 45.9908 59.3015 45.9908 59.3421 45.9908C59.4374 46.1073 59.4374 46.1073 59.5513 46.271C59.7327 46.527 59.9186 46.7779 60.1115 47.0254C60.3279 47.3055 60.5414 47.5875 60.7502 47.8733C60.7759 47.9076 60.8015 47.942 60.828 47.9774C60.9667 48.1694 61.0499 48.3236 61.0751 48.5605C60.7931 48.7162 60.4965 48.7543 60.1825 48.8107C60.1234 48.8221 60.0642 48.8334 60.0033 48.8451C59.946 48.8556 59.8888 48.866 59.8298 48.8768C59.7778 48.8863 59.7258 48.8959 59.6722 48.9058C59.444 48.9258 59.2807 48.905 59.0993 48.7622C58.9836 48.6202 58.9836 48.6202 58.8781 48.4293C58.7428 48.1894 58.579 47.9812 58.4046 47.7687C58.373 47.7297 58.3414 47.6908 58.3089 47.6506C58.2451 47.5721 58.1811 47.4936 58.1171 47.4153C58.0376 47.318 57.9587 47.2202 57.8799 47.1223C57.6246 46.8064 57.3598 46.5023 57.0865 46.2019C56.7161 45.7859 56.3738 45.345 56.0274 44.9091C55.9442 44.8019 55.9442 44.8019 55.8761 44.7359C55.8413 44.5207 55.8693 44.4469 55.9963 44.2658C56.0489 44.2053 56.1023 44.1454 56.1562 44.086C56.3309 43.8864 56.5028 43.689 56.653 43.4698C56.7725 43.3017 56.7725 43.3017 56.892 43.2419Z" fill="black" style="fill:black;fill-opacity:1;"/>
<path d="M56.0552 41.0308C56.2163 41.0356 56.3229 41.0613 56.4418 41.1729C56.4732 41.2074 56.5046 41.2418 56.537 41.2773C56.7709 41.5299 57.0447 41.6739 57.3473 41.8328C57.3942 41.864 57.4411 41.8951 57.4894 41.9271C57.4894 42.1872 57.3333 42.3244 57.1757 42.5173C57.1463 42.5539 57.117 42.5904 57.0868 42.6281C57.0291 42.6999 56.9712 42.7715 56.913 42.8428C56.8398 42.9335 56.769 43.0262 56.6986 43.1191C56.6637 43.1596 56.6289 43.2001 56.593 43.2418C56.5536 43.2418 56.5142 43.2418 56.4735 43.2418C56.4587 43.275 56.4439 43.3082 56.4287 43.3424C56.1684 43.8248 55.7346 44.2313 55.3654 44.6317C55.2243 44.7892 55.0922 44.9511 54.9609 45.1168C54.7429 45.3867 54.5103 45.6364 54.2662 45.8824C54.2322 45.9169 54.1983 45.9514 54.1633 45.987C53.9187 46.2298 53.9187 46.2298 53.7844 46.2298C53.7001 45.8689 53.7296 45.5135 53.747 45.1466C53.7497 45.083 53.7523 45.0194 53.755 44.9538C53.7634 44.7615 53.7738 44.5694 53.7844 44.3773C53.7869 44.3124 53.7895 44.2475 53.7921 44.1806C53.8108 43.8343 53.8239 43.6008 54.072 43.3389C54.1206 43.2853 54.1692 43.2317 54.2193 43.1765C54.2998 43.0905 54.2998 43.0905 54.382 43.0028C54.4698 42.902 54.5564 42.8002 54.6429 42.6983C54.7334 42.5916 54.8245 42.4855 54.9158 42.3795C55.0962 42.1698 55.2753 41.9591 55.4539 41.7479C55.48 41.7171 55.506 41.6863 55.5329 41.6545C55.7079 41.4474 55.8818 41.2393 56.0552 41.0308Z" fill="black" style="fill:black;fill-opacity:1;"/>
<path d="M51.6925 40.4331C51.7714 40.4528 51.8502 40.4725 51.9315 40.4929C51.9315 40.5323 51.9315 40.5717 51.9315 40.6124C51.9851 40.6358 51.9851 40.6358 52.0398 40.6598C52.1792 40.7367 52.2492 40.8075 52.3498 40.9299C52.5771 41.1992 52.8156 41.4566 53.0564 41.7138C53.5076 42.1985 53.5076 42.1985 53.5084 42.5582C53.509 42.6257 53.5095 42.6932 53.5101 42.7627C53.5098 42.8364 53.5094 42.91 53.509 42.9859C53.5093 43.0634 53.5095 43.1408 53.5098 43.2206C53.5103 43.4324 53.5095 43.6442 53.5083 43.856C53.5076 43.9891 53.5072 44.1222 53.5069 44.2552C53.4995 46.8606 53.3547 49.458 53.1187 52.0525C53.1144 52.1013 53.11 52.1501 53.1056 52.2004C53.0861 52.4071 53.0577 52.6023 53.0072 52.8032C52.9994 52.9164 52.9935 53.0297 52.9885 53.1431C52.953 53.6851 52.8593 54.2162 52.7707 54.7516C52.714 55.095 52.6631 55.439 52.615 55.7837C52.5017 56.5873 52.3806 57.3882 52.2266 58.1852C52.2169 58.2368 52.2072 58.2884 52.1972 58.3416C52.1877 58.3893 52.1782 58.437 52.1684 58.4861C52.1602 58.5283 52.1519 58.5705 52.1434 58.614C52.1108 58.7193 52.1108 58.7193 51.9913 58.8388C51.786 58.8171 51.6394 58.7171 51.4695 58.6054C51.4167 58.5708 51.3638 58.5362 51.3093 58.5006C51.2546 58.4643 51.1998 58.428 51.1434 58.3906C51.088 58.3543 51.0326 58.3181 50.9755 58.2807C50.5676 58.0127 50.5676 58.0127 50.4973 57.9424C50.4657 57.4672 50.5542 57.0128 50.6369 56.5471C50.6793 56.3074 50.72 56.0675 50.7606 55.8275C50.7688 55.7791 50.777 55.7306 50.7855 55.6807C50.9582 54.6506 51.0896 53.6137 51.1808 52.5732C51.2077 52.2699 51.2387 51.9671 51.2704 51.6643C51.5616 48.8715 51.6383 46.0894 51.6645 43.2831C51.6676 42.9605 51.6709 42.6379 51.6741 42.3153C51.6805 41.6879 51.6866 41.0605 51.6925 40.4331Z" fill="black" style="fill:black;fill-opacity:1;"/>
<path d="M59.282 37.9232C59.3194 37.9441 59.3569 37.965 59.3955 37.9865C59.809 38.2475 60.0748 38.6834 60.2099 39.1478C60.3354 39.8137 60.2214 40.4207 59.8423 40.9821C59.7954 41.0376 59.7486 41.0931 59.7003 41.1502C59.6609 41.1502 59.6214 41.1502 59.5808 41.1502C59.5808 41.1897 59.5808 41.2291 59.5808 41.2697C59.0391 41.6709 58.5151 41.8044 57.8478 41.7478C57.6577 41.7076 57.4873 41.6472 57.31 41.5685C57.2397 41.5377 57.1695 41.5069 57.0971 41.4751C56.6536 41.2029 56.3662 40.7269 56.2114 40.2415C56.1497 39.9621 56.1479 39.7011 56.1746 39.4172C56.1788 39.3718 56.183 39.3263 56.1874 39.2795C56.266 38.7833 56.5564 38.3239 56.9477 38.0129C57.6583 37.5359 58.537 37.4989 59.282 37.9232Z" fill="black" style="fill:black;fill-opacity:1;"/>
<path d="M47.856 35.4709C47.9295 35.4734 48.003 35.4758 48.0787 35.4783C48.1382 35.4802 48.1382 35.4802 48.1988 35.4822C48.2831 35.4849 48.3675 35.4879 48.4518 35.4909C48.5789 35.4955 48.706 35.4996 48.8331 35.5035C49.1843 35.515 49.5356 35.5285 49.886 35.5551C49.9302 35.5585 49.9744 35.5618 50.0199 35.5653C50.2778 35.6248 50.4393 35.8266 50.6168 36.011C50.6851 36.0783 50.7535 36.1453 50.822 36.2122C51.1481 36.5325 51.4627 36.8523 51.7523 37.2062C51.7966 37.2506 51.841 37.2949 51.8867 37.3407C52.0772 37.5312 52.2553 37.7307 52.4346 37.9317C52.542 38.0506 52.65 38.1682 52.76 38.2847C53.1047 38.6507 53.426 39.0247 53.7319 39.4238C53.9164 39.6624 54.1136 39.8747 54.3319 40.0833C54.4896 40.243 54.6214 40.4189 54.7554 40.5987C54.8932 40.7748 55.0482 40.9322 55.2071 41.0894C55.278 41.21 55.278 41.21 55.279 41.3809C55.2032 41.6152 55.074 41.7595 54.9045 41.9309C54.876 41.961 54.8474 41.991 54.8179 42.022C54.7609 42.0817 54.7033 42.1409 54.6451 42.1994C54.563 42.2835 54.4858 42.3723 54.4087 42.461C54.2621 42.5845 54.2621 42.5845 54.1148 42.5966C53.9001 42.4947 53.775 42.3339 53.6309 42.1512C53.6029 42.117 53.5749 42.0827 53.5461 42.0474C53.4653 41.9481 53.3855 41.8482 53.306 41.7479C53.1632 41.5679 53.0186 41.3922 52.8653 41.2212C52.6897 41.0224 52.5313 40.8157 52.3748 40.6017C52.282 40.4779 52.282 40.4779 52.122 40.3249C51.9913 40.1941 51.9913 40.1941 51.9315 40.0149C51.8963 39.998 51.8611 39.9811 51.8249 39.9637C51.6428 39.8696 51.553 39.7388 51.4273 39.5779C51.2872 39.3992 51.1505 39.2339 50.9882 39.0748C50.8559 38.9392 50.8559 38.9392 50.8559 38.8197C50.8164 38.8197 50.777 38.8197 50.7364 38.8197C50.6542 38.7361 50.6542 38.7361 50.5571 38.618C50.3323 38.3518 50.0873 38.1111 49.8365 37.8696C49.7205 37.744 49.7205 37.744 49.7205 37.6245C49.6416 37.5851 49.5627 37.5456 49.4814 37.505C49.4814 37.4656 49.4814 37.4261 49.4814 37.3855C49.4457 37.3695 49.4099 37.3534 49.3731 37.3369C49.2425 37.266 49.1579 37.2005 49.0631 37.0867C49.0631 37.0472 49.0631 37.0078 49.0631 36.9672C49.0298 36.9536 48.9966 36.94 48.9623 36.9261C48.7854 36.8257 48.6673 36.6942 48.5253 36.5489C48.4686 36.5032 48.4119 36.4576 48.3535 36.4107C48.0581 36.1688 47.7877 35.8825 47.6289 35.533C47.6887 35.4732 47.6887 35.4732 47.856 35.4709Z" fill="black" style="fill:black;fill-opacity:1;"/>
<path d="M62.5689 35.4133C63.0159 35.4481 63.4239 35.5492 63.8537 35.6748C63.9608 35.7058 63.9608 35.7058 64.0701 35.7374C64.664 35.9118 65.253 36.1004 65.8407 36.2948C65.8829 36.3086 65.9251 36.3225 65.9686 36.3368C66.4054 36.4807 66.8223 36.6334 67.2301 36.8475C67.3749 36.9031 67.5206 36.9567 67.667 37.0081C68.859 37.4429 70.055 38.0342 71.0546 38.8196C71.1242 38.8733 71.1939 38.927 71.2635 38.9807C71.4437 39.12 71.6221 39.2614 71.7997 39.404C71.8756 39.4645 71.9525 39.5236 72.0297 39.5824C72.3947 39.8745 72.6443 40.253 72.9031 40.6375C72.9545 40.7135 73.0074 40.7883 73.0607 40.8628C73.3856 41.3358 73.6081 41.949 73.6242 42.5246C73.6298 42.624 73.6298 42.624 73.6355 42.7254C73.6752 43.9422 73.1081 44.9877 72.3096 45.8711C71.9109 46.2784 71.4541 46.6116 70.9949 46.9468C70.9392 46.9888 70.8836 47.0309 70.8263 47.0742C70.4601 47.3486 70.0876 47.5757 69.6802 47.7834C69.6137 47.8181 69.5472 47.8529 69.4787 47.8887C68.9863 48.143 68.4837 48.3732 67.977 48.5976C67.9176 48.6241 67.8581 48.6506 67.7968 48.6778C66.9577 49.0456 66.0954 49.3461 65.2244 49.6285C65.1769 49.6439 65.1293 49.6593 65.0804 49.6752C63.6492 50.1379 62.1979 50.4867 60.725 50.791C60.5333 50.8319 60.3428 50.8763 60.1521 50.9214C59.7487 51.0155 59.3429 51.0891 58.9348 51.1598C58.7873 51.1856 58.6397 51.2116 58.4922 51.2375C58.4222 51.2498 58.3522 51.2621 58.28 51.2748C58.0397 51.3176 57.8 51.3635 57.5603 51.41C57.2117 51.4758 56.8635 51.5279 56.5115 51.572C56.2835 51.6009 56.056 51.6334 55.8285 51.6663C54.1267 51.9112 54.1267 51.9112 53.4855 51.9068C53.3756 51.7968 53.4154 51.6247 53.4146 51.4772C53.423 50.296 53.423 50.296 53.6648 50.0542C53.7978 50.0302 53.9319 50.0128 54.0663 49.9987C54.107 49.9942 54.1477 49.9897 54.1896 49.9851C54.2774 49.9755 54.3653 49.966 54.4531 49.9568C54.6867 49.9321 54.92 49.9054 55.1534 49.8787C55.2002 49.8734 55.2471 49.868 55.2953 49.8625C55.8804 49.7952 56.4615 49.7062 57.0426 49.6104C57.2283 49.5798 57.4141 49.5499 57.6 49.5201C58.6309 49.3541 59.6541 49.1594 60.6753 48.9412C60.7282 48.93 60.781 48.9188 60.8355 48.9072C61.3971 48.7875 61.9519 48.6588 62.5026 48.4957C62.6765 48.4443 62.8509 48.3961 63.0262 48.3495C63.6174 48.1919 64.2003 48.0255 64.7785 47.8247C64.9156 47.7779 65.0534 47.7332 65.1913 47.6886C65.88 47.4652 66.5533 47.216 67.2225 46.9393C67.332 46.8943 67.442 46.8506 67.5522 46.8072C69.0489 46.2109 70.9137 45.2133 71.6522 43.7198C71.8571 43.1796 71.9008 42.6826 71.6928 42.1392C71.2881 41.2686 70.6154 40.6569 69.8221 40.138C69.7747 40.1069 69.7272 40.0758 69.6784 40.0438C69.54 39.9538 69.401 39.8646 69.2619 39.7757C69.1968 39.7337 69.1318 39.6918 69.0648 39.6485C67.8484 38.909 66.4472 38.4523 65.1054 37.9939C64.9267 37.9325 64.7486 37.8697 64.5708 37.806C63.6432 37.4788 62.6879 37.2555 61.7322 37.0268C61.6774 36.8508 61.6641 36.8069 61.7414 36.6307C61.9978 36.2093 62.2709 35.8065 62.5689 35.4133Z" fill="black" style="fill:black;fill-opacity:1;"/>
<path d="M53.6357 33.7959C54.2886 33.8518 54.9384 33.9284 55.5883 34.0128C55.6472 34.0204 55.7062 34.028 55.767 34.0359C56.6843 34.1557 57.5955 34.3003 58.5052 34.4684C58.5604 34.4785 58.6155 34.4885 58.6723 34.4989C58.8284 34.5275 58.9843 34.5569 59.1402 34.5868C59.1858 34.5952 59.2314 34.6036 59.2784 34.6122C59.5436 34.6645 59.7608 34.7422 59.9992 34.8755C59.9608 35.08 59.8814 35.2218 59.7679 35.3952C59.7335 35.4478 59.6992 35.5004 59.6639 35.5546C59.6279 35.6091 59.5918 35.6635 59.5547 35.7196C59.519 35.7746 59.4832 35.8295 59.4463 35.8861C59.1799 36.2925 59.1799 36.2925 59.0431 36.4293C58.8921 36.4245 58.7515 36.4121 58.6023 36.3919C58.5592 36.3863 58.5161 36.3807 58.4717 36.3749C58.1352 36.3287 57.8046 36.267 57.4723 36.197C56.8946 36.0786 56.3149 35.9861 55.7311 35.9028C55.5714 35.88 55.4118 35.8566 55.2522 35.8332C54.5536 35.7309 54.5536 35.7309 53.8498 35.6771C53.6828 35.6442 53.6039 35.5957 53.4855 35.4731C53.4455 35.312 53.4455 35.312 53.4318 35.1199C53.4266 35.051 53.4215 34.982 53.4162 34.9109C53.4119 34.8388 53.4077 34.7668 53.4033 34.6925C53.3977 34.6202 53.3921 34.5479 53.3863 34.4735C53.3593 34.0785 53.3593 34.0785 53.366 33.9194C53.4855 33.7999 53.4855 33.7999 53.6357 33.7959Z" fill="black" style="fill:black;fill-opacity:1;"/>
<path d="M45.896 33.3815C46.1002 33.3798 46.3043 33.3787 46.5085 33.3778C46.5652 33.3773 46.6219 33.3768 46.6803 33.3763C47.0289 33.3751 47.3706 33.3926 47.7176 33.4244C47.9781 33.4453 48.2387 33.4586 48.4997 33.4712C48.5763 33.4749 48.5763 33.4749 48.6544 33.4786C48.8666 33.4887 49.0789 33.4987 49.2912 33.5085C50.8779 33.5827 50.8779 33.5827 51.0353 33.7401C51.197 34.2613 51.1669 34.8148 51.1548 35.3536C50.8834 35.4893 50.5152 35.418 50.2215 35.3848C49.8929 35.3508 49.565 35.3358 49.235 35.3237C49.1736 35.3213 49.1122 35.3188 49.0489 35.3163C48.8545 35.3087 48.6601 35.3012 48.4656 35.2938C48.2092 35.2841 47.9527 35.2741 47.6962 35.2639C47.6384 35.2618 47.5807 35.2597 47.5211 35.2575C47.2464 35.2466 46.9722 35.2321 46.6981 35.2095C46.65 35.2056 46.6018 35.2017 46.5522 35.1976C46.4338 35.1743 46.4338 35.1743 46.3208 35.0585C46.299 34.9981 46.2771 34.9377 46.2545 34.8755C46.2372 34.8321 46.2198 34.7886 46.2019 34.7438C46.1412 34.5896 46.0855 34.4342 46.0305 34.2779C46.0108 34.2248 45.9912 34.1716 45.9709 34.1168C45.9527 34.0652 45.9344 34.0136 45.9156 33.9604C45.8989 33.9138 45.8822 33.8672 45.865 33.8192C45.8312 33.656 45.8538 33.5414 45.896 33.3815Z" fill="black" style="fill:black;fill-opacity:1;"/>
<path d="M45.4776 31.4692C45.7439 31.4908 45.8674 31.5895 46.0565 31.7718C46.2599 31.9625 46.4651 32.1442 46.684 32.3171C46.7328 32.3558 46.7816 32.3946 46.832 32.4345C46.9212 32.5051 47.0105 32.5756 47.0999 32.646C47.1566 32.6921 47.1566 32.6921 47.2143 32.7391C47.2471 32.7653 47.2798 32.7915 47.3135 32.8185C47.4065 32.922 47.4262 33.0069 47.4496 33.1425C47.1055 33.3146 46.5706 33.2021 46.1947 33.1836C46.1195 33.1801 46.0443 33.1766 45.9669 33.1731C45.7764 33.1425 45.7764 33.1425 45.6704 33.0781C45.5592 32.9038 45.5011 32.7147 45.4402 32.5188C45.4273 32.4788 45.4143 32.4389 45.401 32.3977C45.3657 32.2878 45.3319 32.1773 45.2983 32.0668C45.2838 32.0214 45.2693 31.9759 45.2544 31.9291C45.2281 31.7611 45.3242 31.6623 45.4178 31.529C45.4375 31.5093 45.4573 31.4896 45.4776 31.4692Z" fill="black" style="fill:black;fill-opacity:1;"/>
<path d="M49.6721 25.8147C49.7078 25.827 49.7436 25.8394 49.7804 25.8521C49.8327 26.0722 49.8832 26.2926 49.9335 26.5132C49.9557 26.6062 49.9557 26.6062 49.9783 26.7012C50.1233 27.3447 50.1233 27.3447 50.0195 27.6448C49.887 27.7704 49.7739 27.8605 49.6236 27.9586C49.5412 28.0155 49.4589 28.0724 49.3766 28.1294C49.3343 28.1581 49.2921 28.1867 49.2486 28.2162C49.0538 28.3496 48.8646 28.4903 48.6749 28.6309C48.601 28.6851 48.5271 28.7394 48.4531 28.7936C48.4162 28.8206 48.3794 28.8477 48.3414 28.8755C48.2215 28.9633 48.1016 29.051 47.9816 29.1386C47.9212 29.1827 47.9212 29.1827 47.8596 29.2277C47.783 29.2837 47.7064 29.3397 47.6297 29.3956C47.4703 29.5121 47.315 29.6295 47.1627 29.7553C47.0315 29.8559 47.0315 29.8559 46.912 29.8559C46.912 29.8953 46.912 29.9348 46.912 29.9754C46.8007 30.0685 46.689 30.155 46.5721 30.2406C46.3489 30.4068 46.1299 30.5745 45.9211 30.7586C45.8697 30.8038 45.8697 30.8038 45.8172 30.8499C45.7514 30.9083 45.6861 30.9673 45.6214 31.0269C45.4236 31.2016 45.3195 31.2448 45.0595 31.2304C44.9772 30.9992 44.8968 30.7675 44.8167 30.5357C44.7934 30.4703 44.7701 30.4049 44.7461 30.3375C44.7243 30.2739 44.7026 30.2104 44.6801 30.1449C44.6496 30.0576 44.6496 30.0576 44.6185 29.9685C44.5756 29.769 44.5886 29.6341 44.6412 29.4376C44.7761 29.2975 44.7761 29.2975 44.9474 29.1687C45.0074 29.1225 45.0673 29.0764 45.129 29.0289C45.185 28.9863 45.2409 28.9437 45.2985 28.8998C45.3688 28.8394 45.4386 28.7785 45.5077 28.7168C45.7255 28.5283 45.9589 28.3632 46.1928 28.1953C46.389 28.0523 46.5817 27.9054 46.7738 27.7569C46.8071 27.7312 46.8404 27.7055 46.8747 27.679C46.907 27.654 46.9394 27.629 46.9727 27.6033C47.7464 27.0058 48.5461 26.4496 49.3621 25.9118C49.5414 25.7923 49.5414 25.7923 49.6721 25.8147Z" fill="black" style="fill:black;fill-opacity:1;"/>
<path d="M64.8208 21.7324C65.3578 22.1875 65.706 22.7917 65.9152 23.4617C65.933 23.5159 65.9508 23.57 65.9691 23.6258C66.4146 25.2704 65.9764 27.0216 65.4969 28.601C65.4821 28.6499 65.4674 28.6988 65.4523 28.7492C64.9301 30.4634 64.1219 32.0861 63.2513 33.6466C63.1611 33.8092 63.0726 33.9728 62.9842 34.1364C62.8344 34.4114 62.6773 34.6803 62.5126 34.9466C62.4854 34.991 62.4581 35.0353 62.4301 35.081C62.0415 35.7118 61.6485 36.34 61.254 36.9672C61.2178 37.0251 61.1816 37.0829 61.1442 37.1425C60.9533 37.4457 60.7583 37.7396 60.5406 38.0242C60.4945 38.0848 60.4483 38.1454 60.4008 38.2079C60.3498 38.2741 60.3498 38.2741 60.2978 38.3417C60.1671 38.3342 60.1671 38.3342 59.999 38.2819C59.9257 38.1951 59.8527 38.1079 59.7837 38.0176C59.6388 37.854 59.4544 37.7631 59.2633 37.6619C59.2247 37.6407 59.1862 37.6195 59.1464 37.5977C59.0525 37.5462 58.9581 37.4957 58.8636 37.4453C58.8971 37.2092 58.9648 37.0615 59.1022 36.8675C59.1575 36.7883 59.1575 36.7883 59.2139 36.7075C59.2735 36.6235 59.2735 36.6235 59.3342 36.5377C59.7383 35.9561 60.116 35.3652 60.4771 34.7561C60.5087 34.7031 60.5403 34.6501 60.5729 34.5954C60.8014 34.2116 61.0283 33.8269 61.254 33.4414C61.2775 33.4014 61.301 33.3613 61.3252 33.3201C61.8879 32.3583 62.3835 31.3716 62.8409 30.3557C62.9261 30.1664 63.0139 29.98 63.1093 29.7957C63.9111 28.2124 64.733 25.815 64.1798 24.0336C64.1609 23.9829 64.1419 23.9323 64.1224 23.88C64.094 23.8003 64.094 23.8003 64.065 23.719C63.8345 23.1713 63.3589 22.8863 62.8233 22.6676C61.8858 22.3729 60.7049 22.5547 59.7824 22.8156C59.6803 22.844 59.6803 22.844 59.5761 22.8729C59.3781 22.9286 59.1805 22.9856 58.9831 23.0434C58.9333 23.058 58.8835 23.0725 58.8322 23.0876C57.6581 23.4384 56.5262 23.9424 55.4549 24.5339C55.2517 24.6437 55.0445 24.7452 54.8374 24.8474C54.3505 25.0897 53.8738 25.3367 53.4155 25.6308C53.3596 25.6664 53.3036 25.702 53.246 25.7387C53.133 25.811 53.0204 25.884 52.9085 25.9579C52.8562 25.9913 52.8039 26.0247 52.75 26.0591C52.7032 26.0897 52.6564 26.1203 52.6081 26.1518C52.4372 26.2243 52.3457 26.2031 52.1706 26.1509C52.1203 25.9281 52.0707 25.7052 52.0212 25.4823C52.007 25.4193 51.9927 25.3562 51.9781 25.2913C51.9646 25.2302 51.9511 25.1692 51.9372 25.1063C51.9247 25.0502 51.9122 24.9942 51.8993 24.9365C51.8721 24.7779 51.8586 24.638 51.8718 24.4776C52.1111 24.2339 52.435 24.0695 52.7271 23.895C52.7801 23.8633 52.8331 23.8315 52.8877 23.7989C53.2831 23.5647 53.6851 23.353 54.0988 23.1534C54.3089 23.0516 54.5108 22.9378 54.7141 22.823C55.7816 22.2412 56.9505 21.8169 58.098 21.4225C58.1374 21.4088 58.1769 21.3952 58.2176 21.3812C60.3387 20.6531 62.9474 20.2219 64.8208 21.7324Z" fill="black" style="fill:black;fill-opacity:1;"/>
<path d="M50.0512 19.9388C50.1988 19.9956 50.1988 19.9956 50.28 20.1368C50.3004 20.1992 50.3208 20.2616 50.3419 20.3259C50.3654 20.3959 50.389 20.466 50.4132 20.5381C50.4377 20.615 50.462 20.6919 50.4864 20.7687C50.5122 20.8475 50.5382 20.9262 50.5642 21.0049C50.6306 21.2067 50.6953 21.409 50.7593 21.6115C50.7945 21.7226 50.8299 21.8336 50.8654 21.9446C51.3139 23.3504 51.6612 24.7668 51.966 26.2096C51.9904 26.3247 52.0149 26.4399 52.0394 26.555C52.2812 27.6968 52.4714 28.8434 52.6474 29.9967C52.69 30.2748 52.7342 30.5526 52.7801 30.8302C52.7908 30.8955 52.8016 30.9609 52.8127 31.0283C52.8317 31.1429 52.8509 31.2576 52.8704 31.3721C53.0346 32.3721 53.1028 33.3884 53.1867 34.3975C53.1945 34.4903 53.1945 34.4903 53.2024 34.5849C53.2718 35.4195 53.334 36.2542 53.3809 37.0904C53.3834 37.1336 53.3858 37.1769 53.3883 37.2214C53.4103 37.6153 53.4281 38.0068 53.4257 38.4013C53.2465 38.4013 53.2465 38.4013 53.0737 38.2482C53.0063 38.1802 52.9394 38.1117 52.873 38.0428C52.838 38.0072 52.8031 37.9716 52.7671 37.9349C52.553 37.7153 52.3468 37.4908 52.1486 37.2568C51.9973 37.0852 51.8332 36.9269 51.6689 36.7678C51.5195 36.6125 51.5032 36.4988 51.4866 36.2897C51.4822 36.236 51.4778 36.1823 51.4733 36.127C51.4665 36.0394 51.4665 36.0394 51.4595 35.95C51.4546 35.8897 51.4497 35.8294 51.4446 35.7672C51.4234 35.5089 51.4028 35.2505 51.3823 34.9922C51.3104 34.0709 51.3104 34.0709 51.1845 33.1558C51.1473 32.9136 51.1226 32.6709 51.0982 32.4271C51.0346 31.7984 50.9531 31.1727 50.8673 30.5468C50.8595 30.4896 50.8517 30.4324 50.8437 30.3735C50.5788 28.4423 50.1885 26.5486 49.7207 24.6568C49.7064 24.5989 49.6922 24.5409 49.6775 24.4813C49.4249 23.4604 49.1191 22.4582 48.7718 21.4655C48.7547 21.4163 48.7377 21.367 48.7201 21.3162C48.6885 21.2257 48.6564 21.1354 48.6234 21.0454C48.5421 20.8122 48.5083 20.6518 48.5853 20.4139C48.6751 20.3922 48.6751 20.3922 48.7667 20.37C49.2677 20.2555 49.2677 20.2555 49.7282 20.0367C49.9 19.9358 49.9 19.9358 50.0512 19.9388Z" fill="black" style="fill:black;fill-opacity:1;"/>
<path d="M48.305 16.0852C48.3497 16.0858 48.3945 16.0864 48.4405 16.087C49.0568 16.1066 49.4464 16.3213 49.8917 16.7463C50.2999 17.2 50.3399 17.6959 50.3349 18.2879C50.3109 18.5937 50.2252 18.8317 50.0791 19.0993C50.0477 19.1572 50.0477 19.1572 50.0156 19.2162C49.7435 19.6499 49.2911 19.9011 48.8043 20.0272C48.1678 20.1399 47.6548 20.0297 47.1098 19.6894C46.7487 19.413 46.4881 18.998 46.3741 18.5615C46.3156 17.8718 46.3682 17.3066 46.8082 16.7598C47.2258 16.3141 47.6955 16.0763 48.305 16.0852Z" fill="black" style="fill:black;fill-opacity:1;"/>
<path d="M45.9634 13.7582C46.616 14.1767 47.5231 14.8636 47.8682 15.5733C47.8645 15.7286 47.8645 15.7286 47.8084 15.8721C47.6908 15.9499 47.6908 15.9499 47.5395 16.0103C47.2338 16.1466 47.0268 16.3235 46.793 16.5608C46.673 16.649 46.673 16.649 46.554 16.6492C46.3914 16.568 46.2985 16.4612 46.18 16.3241C46.1378 16.2761 46.0956 16.2281 46.0521 16.1786C45.9559 16.0514 45.9559 16.0514 45.9559 15.9319C45.9213 15.9162 45.8867 15.9006 45.8511 15.8845C45.7091 15.8082 45.6033 15.7198 45.4816 15.6144C44.9827 15.2241 44.4335 15.0412 43.8002 15.0708C43.5398 15.1072 43.3624 15.1863 43.1473 15.3343C43.0943 15.3698 43.0414 15.4053 42.9869 15.4419C42.6799 15.6564 42.4044 15.8792 42.1517 16.156C42.0716 16.2307 42.0716 16.2307 41.9521 16.2307C41.9358 16.2658 41.9195 16.3008 41.9027 16.337C41.834 16.467 41.7598 16.5686 41.6657 16.6812C41.6168 16.7402 41.6168 16.7402 41.567 16.8003C41.5326 16.8416 41.4982 16.8829 41.4628 16.9254C41.0505 17.4268 40.6792 17.9331 40.3601 18.4996C40.2788 18.621 40.2788 18.621 40.0996 18.7405C39.908 18.3787 39.765 18.0159 39.6364 17.6275C39.6176 17.5728 39.5987 17.5182 39.5792 17.4618C39.396 16.913 39.396 16.913 39.4422 16.649C39.5536 16.4786 39.5536 16.4786 39.6999 16.3128C39.7478 16.2578 39.7956 16.2028 39.8449 16.1462C39.8895 16.0952 39.9341 16.0442 39.98 15.9916C40.0129 15.9456 40.0458 15.8995 40.0797 15.8521C40.106 15.8192 40.1322 15.7864 40.1593 15.7526C40.1988 15.7526 40.2382 15.7526 40.2788 15.7526C40.2932 15.7186 40.3076 15.6847 40.3225 15.6497C40.4133 15.4868 40.5223 15.3781 40.6561 15.2484C40.7045 15.2011 40.753 15.1538 40.8029 15.1051C40.8469 15.0624 40.8909 15.0197 40.9362 14.9757C40.9855 14.9252 41.0348 14.8747 41.0856 14.8226C42.5225 13.4216 44.0938 12.7367 45.9634 13.7582Z" fill="black" style="fill:black;fill-opacity:1;"/>
<path d="M33.8808 10.9159C34.2038 11.2194 34.3342 11.6661 34.4784 12.0737C34.4991 12.1319 34.5198 12.1901 34.5412 12.25C34.6018 12.4213 34.6616 12.5929 34.7211 12.7647C34.737 12.8099 34.7528 12.8551 34.7692 12.9016C35.0765 13.7862 35.1869 14.6883 35.3034 15.6138C35.3624 16.0717 35.4353 16.5264 35.5129 16.9814C35.7242 18.2225 35.9109 19.4673 36.0956 20.7126C36.1028 20.7615 36.1101 20.8105 36.1176 20.8609C36.161 21.1537 36.2033 21.4466 36.245 21.7397C36.2553 21.8102 36.2656 21.8808 36.2762 21.9534C36.2894 22.0486 36.2894 22.0486 36.3029 22.1456C36.3105 22.1998 36.3182 22.254 36.3261 22.3098C36.3346 22.4456 36.3346 22.4456 36.2749 22.6249C36.1183 22.6801 35.9686 22.7235 35.808 22.7631C35.7094 22.789 35.6108 22.8151 35.5122 22.8413C35.4607 22.8547 35.4093 22.8682 35.3562 22.8821C34.7108 23.053 34.0727 23.238 33.4587 23.5026C33.3987 23.5282 33.3987 23.5282 33.3375 23.5543C33.1382 23.644 33.0527 23.6934 32.9284 23.8798C32.8624 24.2999 33.0568 24.5749 33.2645 24.9219C33.3166 25.0114 33.3166 25.0114 33.3697 25.1027C33.4808 25.2931 33.593 25.4828 33.7052 25.6726C33.7783 25.7976 33.8513 25.9228 33.9242 26.0479C34.0312 26.2317 34.1383 26.4155 34.2458 26.599C34.4386 26.9284 34.6289 27.2589 34.8145 27.5923C35.062 28.0369 35.321 28.4745 35.5815 28.9116C35.7786 29.2431 35.9702 29.5771 36.1553 29.9155C36.4799 29.9366 36.7256 29.8781 37.0319 29.7696C37.1856 29.7327 37.2613 29.753 37.4103 29.7959C37.5462 30.2928 37.6353 30.7827 37.6979 31.2936C37.7181 31.4517 37.7384 31.6097 37.7588 31.7677C37.7642 31.8098 37.7696 31.8519 37.7751 31.8953C37.8482 32.4635 37.9283 33.0308 38.0079 33.5981C38.0234 33.7094 38.039 33.8207 38.0546 33.9321C38.1415 34.5529 38.2292 35.1736 38.3179 35.7942C38.3272 35.8601 38.3366 35.926 38.3463 35.9939C38.3897 36.2982 38.4341 36.6023 38.4806 36.9061C38.638 37.9461 38.638 37.9461 38.6055 38.461C38.3883 38.5376 38.2412 38.5032 38.0212 38.4456C37.9529 38.428 37.8846 38.4105 37.8143 38.3924C37.7049 38.3635 37.7049 38.3635 37.5933 38.334C37.4406 38.2946 37.2878 38.2553 37.1351 38.2161C37.0597 38.1966 36.9843 38.1771 36.9067 38.157C36.573 38.0717 36.2379 37.993 35.9025 37.9147C35.6182 37.8478 35.3352 37.7774 35.0526 37.7035C34.9875 37.6866 34.9224 37.6697 34.8553 37.6524C34.7288 37.6195 34.6025 37.5861 34.4763 37.5521C34.4191 37.5373 34.3618 37.5224 34.3028 37.5072C34.227 37.487 34.227 37.487 34.1497 37.4665C33.9861 37.4424 33.8644 37.4637 33.7052 37.5048C33.8766 38.0814 34.0488 38.6574 34.2319 39.2304C34.3636 39.6427 34.4887 40.0568 34.6118 40.4718C34.8234 41.1853 35.0451 41.8941 35.2835 42.5992C35.4829 43.1909 35.6726 43.7854 35.8603 44.3808C35.8758 44.4299 35.8912 44.479 35.9072 44.5296C36.1104 45.1753 36.311 45.8217 36.5091 46.4689C36.6885 47.0536 36.8715 47.6371 37.0555 48.2203C37.0711 48.2699 37.0867 48.3195 37.1028 48.3706C37.289 48.9603 37.4789 49.5482 37.678 50.1337C37.8592 50.6729 38.0195 51.2186 38.1808 51.7641C38.2732 52.0762 38.3657 52.3876 38.471 52.6957C38.5349 52.8899 38.5708 53.0203 38.5457 53.2214C38.526 53.2411 38.5063 53.2608 38.4859 53.2811C38.1328 53.2502 37.7949 53.1801 37.4514 53.0944C37.4001 53.0817 37.3488 53.069 37.296 53.056C36.8679 52.9457 36.4569 52.8018 36.0466 52.6379C36.0025 52.6205 35.9583 52.6032 35.9128 52.5853C35.8552 52.5619 35.8552 52.5619 35.7965 52.5379C35.6535 52.4976 35.5262 52.4987 35.3785 52.5043C35.3522 52.5517 35.3522 52.5517 35.3255 52.6C34.834 53.4861 34.333 54.367 33.8285 55.2457C33.7918 55.3099 33.7551 55.3741 33.7173 55.4403C33.5295 55.7665 33.3347 56.084 33.1233 56.3954C32.9992 56.5808 32.8965 56.7753 32.7925 56.9724C32.7124 57.1222 32.6299 57.2693 32.5451 57.4164C32.4948 57.5058 32.4445 57.5952 32.3943 57.6846C32.3695 57.7265 32.3448 57.7684 32.3193 57.8115C32.1478 58.1218 32.1126 58.3143 32.2113 58.6594C32.4012 58.8639 32.6031 58.9462 32.8649 59.0329C32.939 59.058 33.0131 59.0832 33.0894 59.109C33.1509 59.1298 33.1509 59.1298 33.2137 59.151C33.3572 59.2009 33.4992 59.2541 33.6413 59.3079C35.8346 60.1361 38.0493 60.5181 40.3904 60.5491C40.4677 60.5505 40.545 60.5519 40.6246 60.5533C40.6935 60.554 40.7623 60.5548 40.8332 60.5555C40.9958 60.5717 40.9958 60.5717 41.1153 60.6912C41.1695 60.8339 41.2183 60.9755 41.2647 61.1208C41.2797 61.1667 41.2947 61.2126 41.3101 61.2599C41.3651 61.4287 41.4195 61.5978 41.4739 61.7669C41.5097 61.8775 41.5456 61.9881 41.5815 62.0987C42.0046 63.4027 42.0046 63.4028 42.1802 63.9689C42.3414 64.4884 42.5103 65.005 42.6828 65.5209C42.7289 65.659 42.7749 65.7971 42.8208 65.9353C42.8511 66.0263 42.8815 66.1172 42.9118 66.2082C42.9265 66.2522 42.9412 66.2963 42.9563 66.3416C43.0269 66.552 43.0992 66.7613 43.1763 66.9694C43.2173 67.0802 43.2173 67.0802 43.2592 67.1933C43.2837 67.2578 43.3082 67.3224 43.3334 67.3889C43.3844 67.5578 43.3972 67.6873 43.3862 67.8623C43.1822 67.9337 42.9804 67.9938 42.7699 68.0416C42.6972 68.0613 42.6245 68.081 42.5495 68.1013C42.4787 68.2431 42.4743 68.3464 42.4629 68.5045C42.4585 68.5636 42.4542 68.6227 42.4496 68.6836C42.4451 68.748 42.4405 68.8124 42.4359 68.8787C42.4284 68.9785 42.4284 68.9785 42.4209 69.0803C42.405 69.2943 42.3895 69.5083 42.374 69.7223C42.3353 70.2578 42.2955 70.7932 42.2507 71.3283C42.2464 71.3806 42.242 71.4329 42.2375 71.4868C42.2257 71.6207 42.2124 71.7544 42.1982 71.8881C42.191 71.9589 42.1838 72.0296 42.1764 72.1026C42.1144 72.3522 42.0035 72.5139 41.7838 72.6509C41.3792 72.7861 40.9744 72.7898 40.5518 72.7859C40.4283 72.7849 40.3049 72.7859 40.1814 72.787C39.658 72.7881 39.2311 72.7579 38.7873 72.4677C38.5983 72.1841 38.5918 71.8981 38.5644 71.5636C38.5576 71.4929 38.5508 71.4222 38.5437 71.3494C38.4826 70.6948 38.4352 70.0389 38.3921 69.3829C38.3878 69.3199 38.3836 69.2569 38.3792 69.192C38.3702 69.0555 38.3619 68.919 38.3541 68.7824C38.3497 68.7128 38.3453 68.6432 38.3407 68.5715C38.3371 68.5085 38.3334 68.4456 38.3296 68.3807C38.3165 68.2077 38.3165 68.2077 38.1871 68.0416C38.0144 68.0045 37.851 67.9785 37.6762 67.9587C37.6253 67.9523 37.5745 67.9459 37.5221 67.9394C37.3591 67.9192 37.1961 67.9001 37.0331 67.881C36.9238 67.8675 36.8146 67.8539 36.7054 67.8402C36.6007 67.8274 36.496 67.8146 36.3913 67.8018C36.3423 67.7959 36.2932 67.7899 36.2427 67.7837C36.013 67.7569 35.7895 67.7354 35.5578 67.7428C35.3721 68.1425 35.2159 68.5489 35.0685 68.9641C35.0456 69.0281 35.0226 69.0921 34.999 69.158C34.8747 69.5063 34.7527 69.8553 34.6327 70.205C34.5967 70.3098 34.5967 70.3098 34.56 70.4167C34.514 70.5511 34.4682 70.6855 34.4228 70.8201C34.1168 71.7162 34.1168 71.7162 33.8247 71.8661C33.3558 71.99 32.9118 71.8579 32.4503 71.7466C32.4047 71.736 32.3591 71.7253 32.3121 71.7143C31.1253 71.4324 31.1253 71.4324 30.7771 70.91C30.7468 70.461 30.8245 70.0425 30.9078 69.6023C30.921 69.5298 30.9343 69.4573 30.948 69.3825C30.9901 69.1521 31.0329 68.9218 31.0758 68.6915C31.1187 68.4607 31.1614 68.2299 31.2037 67.9991C31.23 67.8558 31.2566 67.7126 31.2835 67.5695C31.3433 67.2437 31.3913 66.9387 31.3746 66.6074C31.0017 66.4138 30.6217 66.2517 30.2318 66.0957C29.8887 65.9581 29.5538 65.8172 29.2233 65.6512C29.0168 65.5865 29.0168 65.5865 28.805 65.6512C28.6351 65.8307 28.5147 66.0383 28.3867 66.2488C28.3113 66.3637 28.2353 66.4782 28.1589 66.5924C28.1188 66.6528 28.0788 66.7132 28.0375 66.7754C27.878 67.0112 27.7127 67.2423 27.5461 67.4731C27.4071 67.6662 27.2708 67.8607 27.1374 68.0577C27.1084 68.1004 27.0794 68.1432 27.0496 68.1872C26.9939 68.2696 26.9384 68.3522 26.8833 68.435C26.517 68.9764 26.517 68.9764 26.2354 69.1172C25.7171 69.195 25.3858 68.9649 24.9631 68.7012C24.8169 68.6124 24.6655 68.5347 24.5136 68.4562C23.6187 67.9697 23.6187 67.9697 23.4865 67.5635C23.4253 67.0319 23.7193 66.5592 23.9493 66.1007C24.1164 65.7649 24.2757 65.4253 24.4368 65.0865C24.5667 64.8139 24.6978 64.5421 24.8341 64.2726C24.857 64.2263 24.88 64.18 24.9036 64.1324C24.9461 64.0469 24.9894 63.9618 25.0337 63.8773C25.1197 63.7021 25.1655 63.5918 25.1305 63.397C25.0201 63.2306 24.9069 63.1447 24.7414 63.033C24.5158 62.8764 24.2969 62.7174 24.0841 62.5438C23.9846 62.464 23.885 62.3843 23.7853 62.3047C23.6996 62.2362 23.6996 62.2362 23.6123 62.1663C23.5548 62.122 23.4972 62.0777 23.4379 62.0321C23.3597 61.971 23.3597 61.971 23.2799 61.9086C23.133 61.8116 23.133 61.8116 22.9678 61.8397C22.8339 61.8848 22.7135 61.9374 22.5901 62.0059C22.5901 62.0454 22.5901 62.0848 22.5901 62.1255C22.4949 62.2112 22.3957 62.2927 22.295 62.372C21.9457 62.6515 21.6117 62.9445 21.2805 63.2452C20.9885 63.5067 20.6796 63.7404 20.3631 63.9712C20.2162 64.0848 20.0908 64.2047 19.9607 64.3365C19.7202 64.4665 19.5145 64.4846 19.2436 64.456C19.0382 64.344 19.0382 64.344 18.885 64.217C18.885 64.1776 18.885 64.1381 18.885 64.0975C18.8514 64.0827 18.8177 64.0679 18.783 64.0527C18.2027 63.7363 17.5969 63.0864 17.3313 62.484C17.2829 62.1989 17.3311 62.04 17.4844 61.8042C17.5518 61.7113 17.6203 61.6192 17.6899 61.5279C17.7271 61.4771 17.7643 61.4263 17.8026 61.374C18.0101 61.097 18.0101 61.097 18.1082 60.99C18.1476 60.99 18.1871 60.99 18.2277 60.99C18.2441 60.9546 18.2604 60.9193 18.2773 60.8828C18.3447 60.7557 18.4148 60.6619 18.5099 60.5547C18.5419 60.5184 18.5738 60.482 18.6067 60.4446C18.6406 60.4064 18.6745 60.3683 18.7095 60.329C18.78 60.2486 18.8504 60.1683 18.9208 60.0878C18.9554 60.0483 18.99 60.0088 19.0256 59.968C19.2442 59.7163 19.4541 59.458 19.6619 59.1973C19.696 59.1567 19.7302 59.1162 19.7653 59.0745C19.8632 58.9577 19.8632 58.9577 19.9607 58.779C19.8964 58.5439 19.7751 58.3818 19.6208 58.1963C19.578 58.1441 19.5352 58.0919 19.491 58.038C19.4488 57.9867 19.4066 57.9354 19.3631 57.8826C19.0363 57.4704 18.7215 57.0492 18.407 56.6276C18.0534 56.6595 17.772 56.8057 17.4583 56.96C17.3746 57.0005 17.3746 57.0005 17.2893 57.0417C17.0006 57.1818 16.7135 57.3249 16.4276 57.4707C16.0148 57.6807 15.5967 57.8758 15.1725 58.0619C15.1194 58.0857 15.0662 58.1095 15.0115 58.134C14.7414 58.2505 14.5238 58.3402 14.2239 58.3009C13.4772 57.9514 12.936 56.7101 12.6358 55.975C12.5901 55.7518 12.6543 55.5843 12.7523 55.3839C13.0751 54.9325 13.6601 54.6508 14.1183 54.3483C14.3804 54.1747 14.6375 53.9954 14.8924 53.8115C15.9611 53.0421 15.9611 53.0421 16.1361 53.0421C16.1084 52.6375 16.0227 52.3268 15.856 51.959C15.8127 51.86 15.7694 51.7611 15.7262 51.6621C15.7047 51.6131 15.6832 51.5642 15.661 51.5138C15.5356 51.2237 15.4224 50.9288 15.3072 50.6345C15.255 50.4802 15.255 50.4802 15.18 50.4127C14.7896 50.3962 14.435 50.4378 14.0528 50.5131C13.9982 50.5234 13.9436 50.5338 13.8874 50.5444C13.7143 50.5772 13.5415 50.6107 13.3686 50.6443C13.141 50.6879 12.9134 50.7312 12.6858 50.7745C12.6316 50.7849 12.5774 50.7953 12.5215 50.806C11.0354 51.0895 11.0354 51.0895 10.6131 50.8586C10.2987 50.5675 10.2309 50.0595 10.1229 49.662C10.1043 49.5949 10.0856 49.5277 10.0664 49.4586C9.75744 48.3379 9.75744 48.3379 9.95111 47.8618C10.2002 47.5662 10.5899 47.4804 10.9444 47.363C11.2687 47.2542 11.5906 47.1383 11.9129 47.0237C12.0349 46.9804 12.1569 46.9373 12.2789 46.8943C12.8722 46.6846 13.4607 46.4643 14.0446 46.2296C14.0058 45.7673 13.9544 45.3077 13.8952 44.8477C13.8796 44.7255 13.864 44.6034 13.8485 44.4812C13.8372 44.3944 13.8372 44.3944 13.8256 44.3058C13.8126 44.1969 13.8016 44.0876 13.7929 43.9782C13.7828 43.8516 13.765 43.7257 13.7458 43.6002C13.5369 43.4609 13.4189 43.4544 13.1706 43.4319C13.1315 43.4283 13.0924 43.4246 13.052 43.4209C12.9248 43.4092 12.7975 43.3982 12.6701 43.3873C12.5825 43.3795 12.4948 43.3716 12.4072 43.3637C11.9474 43.3228 11.4879 43.2883 11.0268 43.2678C9.60655 43.2005 9.60655 43.2005 9.29749 42.9429C8.91241 42.492 9.01241 41.8003 9.0099 41.236C9.00867 41.1663 9.00744 41.0965 9.00617 41.0246C9.00406 40.5567 9.00776 40.0966 9.34978 39.7458C9.59136 39.6044 9.8147 39.5856 10.0916 39.5641C10.162 39.5585 10.2324 39.5529 10.305 39.5471C10.3809 39.5413 10.4567 39.5354 10.5349 39.5294C10.6545 39.5198 10.7741 39.5102 10.8936 39.5006C11.1881 39.4771 11.4826 39.4539 11.7771 39.431C11.9425 39.4181 12.1078 39.405 12.273 39.3917C12.4285 39.3791 12.584 39.367 12.7395 39.3551C13.0897 39.3266 13.4133 39.2939 13.7458 39.1781C13.7788 38.8997 13.8118 38.6212 13.8446 38.3428C13.8558 38.2484 13.867 38.1539 13.8782 38.0594C13.9379 37.5562 13.9966 37.0532 14.0446 36.5487C13.611 36.3584 13.1713 36.1903 12.7262 36.0295C12.6437 35.9997 12.6437 35.9997 12.5596 35.9692C12.3068 35.8779 12.054 35.7866 11.8011 35.6957C11.5826 35.6169 11.3645 35.5376 11.1463 35.4581C11.0775 35.4335 11.0087 35.4088 10.9378 35.3835C10.0352 35.0533 10.0352 35.0533 9.86147 34.6962C9.83317 34.2448 9.91702 33.848 10.0258 33.4113C10.0485 33.3149 10.0485 33.3149 10.0716 33.2164C10.1948 32.7104 10.3343 32.2158 10.6981 31.8277C11.2845 31.5345 12.2789 31.8802 12.883 31.9995C12.9972 32.0216 13.1114 32.0436 13.2256 32.0656C13.3909 32.0974 13.5562 32.1292 13.7214 32.1612C14.4452 32.3152 14.4452 32.3152 15.18 32.3656C15.3672 32.02 15.5063 31.6631 15.6405 31.2945C15.7313 31.0475 15.8312 30.81 15.9457 30.5728C16.0704 30.3084 16.1197 30.0872 16.1361 29.7959C15.7903 29.5369 15.4411 29.2904 15.0754 29.0602C14.7302 28.8423 14.4009 28.6076 14.0737 28.3635C13.7842 28.1482 13.4878 27.9489 13.1832 27.7553C12.9452 27.5849 12.7053 27.3915 12.6104 27.1068C12.5751 26.7821 12.6826 26.5743 12.8457 26.3038C12.8699 26.2625 12.8941 26.2212 12.9191 26.1787C12.9697 26.0925 13.0207 26.0066 13.072 25.9208C13.1456 25.7965 13.2165 25.6712 13.2869 25.5451C13.8009 24.6351 13.8009 24.6351 14.1641 24.4774C14.6083 24.4027 14.9341 24.557 15.3219 24.7575C15.4428 24.8176 15.5638 24.8777 15.6847 24.9377C15.748 24.9697 15.8114 25.0016 15.8766 25.0345C16.1555 25.1745 16.4359 25.3112 16.7168 25.4472C16.8541 25.5136 16.9912 25.5804 17.1281 25.6476C17.5269 25.8415 17.927 26.0086 18.3472 26.1506C18.4929 26.009 18.6257 25.8684 18.7455 25.7043C18.774 25.6656 18.8026 25.6269 18.832 25.587C18.8618 25.5462 18.8917 25.5054 18.9224 25.4634C19.1967 25.0913 19.4829 24.7366 19.7896 24.3908C19.9111 24.2245 19.9663 24.1459 19.9607 23.9396C19.8701 23.7931 19.7833 23.6737 19.6731 23.5437C19.6431 23.5069 19.6131 23.4702 19.5822 23.4324C19.3475 23.1477 19.1005 22.8747 18.8498 22.6041C18.5288 22.2508 18.2341 21.8756 17.9438 21.4969C17.8284 21.3464 17.7181 21.2196 17.5816 21.0861C17.3744 20.873 17.3175 20.6958 17.3201 20.4026C17.3757 20.0114 17.6619 19.7861 17.9289 19.5174C18.0288 19.4044 18.1284 19.2911 18.2277 19.1775C18.5823 18.7875 18.9798 18.379 19.5162 18.2849C20.0767 18.2995 20.5867 18.9213 20.9766 19.2784C21.3765 19.6334 21.7825 19.9815 22.1904 20.3273C22.2825 20.4063 22.373 20.4872 22.4633 20.5683C22.5138 20.6122 22.5643 20.6562 22.6162 20.7014C22.6808 20.7593 22.6808 20.7593 22.7467 20.8183C22.9564 20.9268 23.0827 20.8932 23.3072 20.8321C23.4728 20.7246 23.4728 20.7246 23.6247 20.5781C23.9782 20.2623 24.357 19.9914 24.7486 19.7246C24.7933 19.6934 24.838 19.6621 24.884 19.6299C24.9242 19.6024 24.9644 19.575 25.0058 19.5466C25.1196 19.4391 25.1434 19.3731 25.1597 19.2186C25.0994 19.0448 25.0994 19.0448 24.9991 18.8526C24.9602 18.7728 24.9214 18.693 24.8826 18.6131C24.8605 18.5679 24.8384 18.5226 24.8156 18.476C24.667 18.1678 24.5256 17.8563 24.3829 17.5454C24.1517 17.0436 23.9195 16.5425 23.684 16.0428C23.5115 15.6653 23.4138 15.4212 23.5574 15.0131C23.7494 14.7081 24.0798 14.555 24.3863 14.3835C24.5094 14.3145 24.6313 14.2437 24.7533 14.1727C24.8377 14.1241 24.9221 14.0756 25.0066 14.0271C25.0461 14.0043 25.0857 13.9815 25.1264 13.958C25.5144 13.7394 25.8468 13.6184 26.2951 13.6611C26.5431 13.8256 26.6913 14.0202 26.8554 14.2661C26.9024 14.3358 26.9494 14.4054 26.9964 14.475C27.0193 14.5093 27.0422 14.5436 27.0658 14.5789C27.1582 14.7162 27.2532 14.8516 27.3484 14.987C27.3821 15.035 27.4157 15.0831 27.4504 15.1326C27.5161 15.2261 27.5819 15.3195 27.6479 15.4127C27.8911 15.7575 28.1265 16.1071 28.359 16.4591C28.4603 16.6121 28.5609 16.762 28.6734 16.9072C28.7453 17.0075 28.7453 17.0075 28.7453 17.1271C29.0632 17.1689 29.2493 17.0619 29.5202 16.9174C29.733 16.8127 29.9495 16.7302 30.172 16.649C30.5778 16.5006 30.977 16.3402 31.3746 16.1709C31.3447 15.5116 31.2306 14.8762 31.1095 14.2288C31.072 14.0265 31.0348 13.8242 30.9976 13.6218C30.9843 13.5493 30.9843 13.5493 30.9707 13.4753C30.7047 12.0198 30.7047 12.0198 30.8555 11.704C31.0049 11.5047 31.1202 11.3802 31.359 11.3006C31.4027 11.2859 31.4463 11.2712 31.4913 11.256C31.5379 11.2411 31.5844 11.2263 31.6323 11.2109C31.6804 11.1954 31.7284 11.1798 31.7779 11.1638C33.2637 10.6927 33.2637 10.6927 33.8808 10.9159ZM27.9157 26.7863C27.7201 26.9551 27.522 27.1166 27.3148 27.2711C27.1483 27.3979 27.0102 27.5276 26.8752 27.6873C26.6618 27.9357 26.4386 28.1731 26.213 28.4103C24.7324 29.9827 23.5214 31.8566 22.7096 33.8595C22.6736 33.9451 22.6374 34.0307 22.6013 34.1163C22.1634 35.1653 21.8226 36.246 21.5742 37.3554C21.5618 37.4099 21.5494 37.4645 21.5366 37.5207C21.4027 38.1515 21.4027 38.1515 21.5443 38.7598C21.8697 39.02 22.2909 39.0162 22.6908 39.0133C22.7403 39.0134 22.7899 39.0135 22.8409 39.0137C23.0036 39.0139 23.1662 39.0132 23.3289 39.0126C23.4434 39.0125 23.5579 39.0125 23.6724 39.0125C23.9124 39.0124 24.1523 39.0119 24.3923 39.0111C24.6965 39.0101 25.0008 39.0098 25.3051 39.0099C25.5418 39.0099 25.7785 39.0095 26.0153 39.0091C26.1273 39.0089 26.2392 39.0088 26.3512 39.0088C27.0913 39.0081 27.8272 38.985 28.566 38.939C28.5948 38.8534 28.6236 38.7678 28.6523 38.6822C28.6763 38.6107 28.6763 38.6107 28.7009 38.5378C28.756 38.3681 28.8011 38.1966 28.8461 38.024C29.5121 35.6764 30.9622 33.3716 32.9557 31.9317C33.1601 31.78 33.2979 31.6655 33.3467 31.4094C33.3063 31.2829 33.3063 31.2829 33.216 31.1629C33.0244 30.869 32.8455 30.5706 32.6707 30.2665C32.6422 30.2173 32.6137 30.1681 32.5844 30.1174C32.4067 29.8098 32.2315 29.5009 32.0581 29.1909C31.8582 28.8335 31.6529 28.4796 31.444 28.1273C31.2839 27.8567 31.1266 27.5847 30.9708 27.3115C30.931 27.2419 30.8912 27.1723 30.8514 27.1027C30.7736 26.9665 30.6961 26.8301 30.6189 26.6935C30.3079 26.0732 30.3079 26.0732 29.8209 25.6128C29.0943 25.5283 28.4242 26.3459 27.9157 26.7863ZM21.3352 42.3453C21.1134 42.6508 21.2375 43.0686 21.2754 43.4209C21.2804 43.4702 21.2854 43.5195 21.2906 43.5703C21.6152 46.6795 22.7915 49.6982 24.5621 52.2652C24.5866 52.301 24.6111 52.3368 24.6364 52.3736C25.118 53.0738 25.6591 53.7117 26.2314 54.3393C26.3843 54.509 26.5314 54.6834 26.6773 54.8592C26.7813 54.9625 26.8814 55.0102 27.0122 55.0739C27.0869 55.2009 27.0869 55.2009 27.1318 55.3129C27.1712 55.3129 27.2106 55.3129 27.2513 55.3129C27.2661 55.3485 27.2809 55.384 27.2961 55.4206C27.3827 55.5729 27.4683 55.6401 27.6098 55.7425C27.8804 55.9447 28.1287 56.1646 28.3769 56.3935C28.6004 56.5916 28.738 56.6423 29.0361 56.6552C29.261 56.6066 29.4031 56.4766 29.5305 56.2874C29.602 56.1633 29.669 56.0376 29.735 55.9105C29.787 55.8136 29.8392 55.7168 29.8916 55.6201C29.9189 55.5698 29.9462 55.5195 29.9742 55.4676C30.1182 55.2079 30.272 54.9543 30.426 54.7004C30.6738 54.2909 30.9157 53.879 31.1515 53.4625C31.246 53.2972 31.343 53.1339 31.4419 52.9711C31.5955 52.7173 31.7375 52.4582 31.8784 52.1971C32.0109 51.9557 32.1507 51.7188 32.2902 51.4814C32.4269 51.2467 32.5588 51.0095 32.6893 50.7713C32.5658 50.5432 32.435 50.3928 32.2374 50.226C31.4406 49.5288 31.4406 49.5288 31.2551 49.1578C31.2157 49.1578 31.1762 49.1578 31.1356 49.1578C31.1194 49.1232 31.1031 49.0887 31.0864 49.0531C31.016 48.9186 30.9374 48.803 30.8471 48.6811C30.814 48.6361 30.781 48.591 30.7469 48.5446C30.6784 48.4518 30.6097 48.359 30.541 48.2663C29.427 46.7458 28.6929 44.8659 28.4766 42.9921C28.4715 42.9488 28.4665 42.9055 28.4613 42.8609C28.4515 42.7748 28.4423 42.6887 28.4336 42.6026C28.4112 42.358 28.4112 42.358 28.2672 42.166C28.1452 42.1477 28.1452 42.1477 28.003 42.1504C27.9474 42.15 27.8919 42.1496 27.8347 42.1491C27.743 42.1494 27.743 42.1494 27.6494 42.1496C27.5852 42.1493 27.521 42.149 27.4548 42.1487C27.2415 42.1478 27.0283 42.1479 26.815 42.148C26.6672 42.1478 26.5193 42.1475 26.3715 42.1473C26.0612 42.1468 25.7509 42.1468 25.4406 42.1471C25.0427 42.1475 24.6448 42.1465 24.2469 42.1451C23.9414 42.1442 23.6359 42.1442 23.3304 42.1443C23.1837 42.1443 23.037 42.144 22.8903 42.1434C22.6852 42.1427 22.48 42.1431 22.2749 42.1438C22.2141 42.1433 22.1534 42.1428 22.0908 42.1424C21.6836 42.145 21.6836 42.145 21.3352 42.3453Z" fill="black" style="fill:black;fill-opacity:1;"/>
<path d="M35.5576 9C35.6665 9.03192 35.6665 9.03192 35.7966 9.11952C35.8648 9.26952 35.9176 9.40874 35.9668 9.56491C35.9895 9.63299 35.9895 9.63299 36.0126 9.70245C36.0452 9.8004 36.0773 9.89847 36.1091 9.99667C36.1932 10.2563 36.2802 10.515 36.3667 10.7739C36.384 10.8261 36.4014 10.8783 36.4193 10.9322C36.5797 11.4134 36.7517 11.8897 36.9283 12.3652C36.9555 12.4387 36.9827 12.5122 37.0108 12.588C37.0617 12.7256 37.1127 12.8633 37.1637 13.0009C37.3286 13.4485 37.4854 13.8991 37.6416 14.3498C37.679 14.4577 37.7165 14.5657 37.754 14.6736C37.79 14.7771 37.8258 14.8807 37.8615 14.9843C37.9346 15.1947 38.0102 15.4001 38.0985 15.6047C38.1637 15.7578 38.2196 15.9049 38.2711 16.0624C38.3593 16.3301 38.4508 16.5966 38.5437 16.8627C38.5602 16.9101 38.5767 16.9575 38.5937 17.0063C38.6473 17.1599 38.701 17.3135 38.7547 17.4671C38.7825 17.5468 38.7825 17.5468 38.811 17.6282C39.071 18.3716 39.3373 19.1124 39.6108 19.851C39.8342 20.457 40.0477 21.0663 40.2599 21.6763C40.5692 22.5656 40.8875 23.4513 41.2112 24.3354C41.4656 25.0308 41.7156 25.7276 41.9604 26.4265C41.9735 26.4639 41.9867 26.5014 42.0002 26.54C42.1421 26.9451 42.2835 27.3504 42.4245 27.7558C42.6719 28.4659 42.9254 29.173 43.1913 29.8764C43.3969 30.4205 43.5947 30.9672 43.7898 31.5151C43.8459 31.6724 43.9022 31.8296 43.9585 31.9868C44.1497 32.5219 44.3352 33.0583 44.5133 33.5979C44.6527 34.0185 44.8041 34.4341 44.9584 34.8494C45.0165 35.0069 45.0745 35.1644 45.1325 35.3219C45.1468 35.3607 45.1611 35.3994 45.1759 35.4394C45.532 36.4054 45.8754 37.3761 46.2199 38.3463C46.2399 38.4027 46.2599 38.459 46.2806 38.5171C46.3005 38.5734 46.3205 38.6297 46.3411 38.6877C46.6847 39.655 47.0309 40.6214 47.3786 41.5872C47.4019 41.652 47.4253 41.7168 47.4493 41.7836C47.5157 41.9681 47.5822 42.1527 47.6487 42.3372C47.6683 42.3916 47.6878 42.446 47.708 42.502C47.7265 42.5532 47.7449 42.6044 47.764 42.6571C47.7813 42.7055 47.7986 42.7539 47.8164 42.8037C47.8505 42.8959 47.8861 42.9874 47.9234 43.0783C48.0141 43.3012 48.062 43.4303 47.9874 43.6601C47.5161 43.6348 47.0752 43.5312 46.6196 43.412C46.4088 43.3569 46.1976 43.3033 45.9864 43.2497C45.9224 43.2335 45.9224 43.2335 45.8571 43.2169C45.2574 43.0655 44.653 42.9356 44.0486 42.8044C43.7276 42.7336 43.4074 42.6591 43.0872 42.5845C43.2016 43.7258 43.2016 43.7258 43.3524 44.8628C43.4341 45.4067 43.4987 45.9522 43.5615 46.4987C43.6326 47.1161 43.7087 47.7321 43.7968 48.3474C43.9322 49.2974 44.0409 50.2504 44.1513 51.2035C44.2374 51.947 44.3271 52.69 44.4207 53.4326C44.4558 53.7116 44.4899 53.9907 44.523 54.2699C44.6261 55.136 44.7343 56.0007 44.8564 56.8644C44.9295 57.3825 44.9954 57.9013 45.0592 58.4205C45.1003 58.7533 45.1415 59.086 45.1828 59.4187C45.1949 59.5163 45.2069 59.6138 45.2189 59.7114C45.2889 60.2804 45.3627 60.8486 45.4423 61.4164C45.58 62.3993 45.7012 63.3835 45.8173 64.3691C45.8431 64.5883 45.8692 64.8074 45.8952 65.0266C45.979 65.732 46.0622 66.4375 46.1452 67.1431C46.1778 67.4202 46.2105 67.6974 46.2432 67.9745C46.2492 68.025 46.2551 68.0755 46.2612 68.1275C46.3327 68.7325 46.4096 69.3361 46.5004 69.9386C46.549 70.2653 46.5774 70.5907 46.5985 70.9204C46.6174 71.1409 46.658 71.3544 46.7003 71.5714C46.8039 72.1356 46.8593 72.7022 46.8945 73.2741C46.9178 73.552 46.9637 73.8243 47.0131 74.0986C47.0313 74.2566 47.0313 74.2566 46.9715 74.4359C46.9321 74.4359 46.8926 74.4359 46.852 74.4359C46.8286 74.3639 46.8052 74.2919 46.7811 74.2177C46.2594 72.6127 45.7326 71.0095 45.1962 69.4093C44.9698 68.7341 44.7488 68.0573 44.5295 67.3798C44.2684 66.5734 44.0049 65.7682 43.7259 64.9679C43.5238 64.3879 43.3303 63.8059 43.1439 63.2207C42.8936 62.4361 42.6375 61.6534 42.3813 60.8706C42.346 60.7627 42.346 60.7627 42.3099 60.6525C42.0123 59.7434 41.7127 58.8351 41.4089 57.928C41.1468 57.1451 40.8911 56.3602 40.6375 55.5745C40.4804 55.0881 40.3214 54.6025 40.159 54.1179C40.1038 53.9524 40.0487 53.7869 39.9935 53.6214C39.9638 53.5322 39.9341 53.4431 39.9044 53.3539C39.841 53.164 39.7777 52.974 39.7144 52.784C39.5224 52.2074 39.5224 52.2074 39.3294 51.6311C39.1679 51.1497 39.009 50.6675 38.853 50.1843C38.7878 49.9829 38.7227 49.7814 38.6576 49.58C38.6327 49.5031 38.6327 49.5031 38.6073 49.4246C38.3605 48.6619 38.1051 47.9025 37.8434 47.1448C37.562 46.3302 37.298 45.5123 37.046 44.6881C36.8374 44.0062 36.6052 43.3329 36.372 42.659C36.1216 41.9352 35.873 41.2109 35.6289 40.4849C35.5964 40.3886 35.5638 40.2922 35.5311 40.1959C35.4853 40.0609 35.4399 39.9257 35.3946 39.7905C35.3809 39.7502 35.3671 39.7098 35.3529 39.6683C35.2875 39.4713 35.2588 39.3293 35.2588 39.1184C35.4925 39.0405 35.6641 39.0978 35.8961 39.1537C35.9422 39.1644 35.9884 39.1752 36.036 39.1862C36.1879 39.2217 36.3396 39.2578 36.4913 39.294C36.5963 39.3186 36.7012 39.3431 36.8062 39.3676C37.32 39.488 37.8329 39.6117 38.345 39.7389C38.3899 39.75 38.4348 39.7611 38.4811 39.7726C38.6928 39.8249 38.9043 39.8778 39.1156 39.9318C39.4925 40.0258 39.8298 40.1016 40.2188 40.0746C40.1301 39.4118 40.0398 38.7492 39.9424 38.0876C39.935 38.0368 39.9277 37.986 39.9201 37.9336C39.8868 37.6818 39.8868 37.6818 39.8005 37.4452C39.7837 37.2747 39.7738 37.1042 39.7633 36.9333C39.7462 36.7776 39.7224 36.6398 39.6865 36.4886C39.608 36.149 39.5625 35.8059 39.5152 35.4608C39.4839 35.2329 39.4517 35.0051 39.4195 34.7773C39.4122 34.726 39.405 34.6747 39.3975 34.6219C39.2862 33.8393 39.1674 33.0577 39.0497 32.2761C39.0384 32.2008 39.0271 32.1256 39.0154 32.0481C38.9987 31.9372 38.9987 31.9372 38.9817 31.8241C38.9595 31.6766 38.9373 31.529 38.915 31.3815C38.8987 31.2731 38.8987 31.2731 38.8821 31.1624C38.7402 30.2197 38.5999 29.2768 38.4631 28.3334C38.353 27.574 38.2429 26.8156 38.1039 26.0609C38.0671 25.8498 38.0382 25.6388 38.0114 25.4262C37.963 25.0454 37.8994 24.6687 37.8322 24.2908C37.7392 23.7661 37.6573 23.2412 37.584 22.7135C37.5104 22.1843 37.4318 21.6559 37.3541 21.1273C37.249 20.4117 37.1451 19.6959 37.0441 18.9797C36.9462 18.2885 36.8371 17.5993 36.7254 16.9102C36.6651 16.5357 36.606 16.1611 36.5473 15.7864C36.5411 15.7465 36.5349 15.7067 36.5284 15.6657C36.4221 14.9862 36.3214 14.3059 36.2222 13.6254C36.1 12.7872 35.9683 11.9507 35.8307 11.1149C35.5576 9.45559 35.5576 9.45559 35.5576 9Z" fill="black" style="fill:black;fill-opacity:1;"/>
</svg>
