<svg width="29" height="37" viewBox="0 0 29 37" fill="none" xmlns="http://www.w3.org/2000/svg">
<path d="M19.6875 10.2874V1.3125H9.18752V10.2874C6.42391 11.4935 4.15989 13.6144 2.77614 16.2935C1.39239 18.9726 0.97331 22.0465 1.58937 24.9982C2.20544 27.9499 3.81907 30.5995 6.15893 32.5015C8.49879 34.4034 11.4222 35.4416 14.4375 35.4416C17.4529 35.4416 20.3762 34.4034 22.7161 32.5015C25.056 30.5995 26.6696 27.9499 27.2857 24.9982C27.9017 22.0465 27.4826 18.9726 26.0989 16.2935C24.7151 13.6144 22.4511 11.4935 19.6875 10.2874Z" fill="#9FE3D1" style="fill:#9FE3D1;fill:color(display-p3 0.6235 0.8902 0.8196);fill-opacity:1;"/>
<path d="M11.8125 28.875C12.5374 28.875 13.125 28.2874 13.125 27.5625C13.125 26.8376 12.5374 26.25 11.8125 26.25C11.0876 26.25 10.5 26.8376 10.5 27.5625C10.5 28.2874 11.0876 28.875 11.8125 28.875Z" fill="#3B7E72" style="fill:#3B7E72;fill:color(display-p3 0.2314 0.4941 0.4471);fill-opacity:1;"/>
<path d="M18.375 27.5625C19.0999 27.5625 19.6875 26.9749 19.6875 26.25C19.6875 25.5251 19.0999 24.9375 18.375 24.9375C17.6501 24.9375 17.0625 25.5251 17.0625 26.25C17.0625 26.9749 17.6501 27.5625 18.375 27.5625Z" fill="#3B7E72" style="fill:#3B7E72;fill:color(display-p3 0.2314 0.4941 0.4471);fill-opacity:1;"/>
<path d="M21 9.45788V2.625H22.3125C22.6606 2.625 22.9944 2.48672 23.2406 2.24058C23.4867 1.99444 23.625 1.6606 23.625 1.3125C23.625 0.964403 23.4867 0.630564 23.2406 0.384422C22.9944 0.138281 22.6606 0 22.3125 0H6.56251C6.21441 0 5.88058 0.138281 5.63443 0.384422C5.38829 0.630564 5.25001 0.964403 5.25001 1.3125C5.25001 1.6606 5.38829 1.99444 5.63443 2.24058C5.88058 2.48672 6.21441 2.625 6.56251 2.625H7.87501V9.45788C4.98714 10.9316 2.67936 13.3344 1.32337 16.2794C-0.0326167 19.2244 -0.357879 22.5401 0.399971 25.6924C1.15782 28.8448 2.95467 31.6503 5.50111 33.6571C8.04755 35.6639 11.1953 36.7552 14.4375 36.7552C17.6797 36.7552 20.8275 35.6639 23.3739 33.6571C25.9204 31.6503 27.7172 28.8448 28.475 25.6924C29.2329 22.5401 28.9076 19.2244 27.5517 16.2794C26.1957 13.3344 23.8879 10.9316 21 9.45788ZM9.71251 11.4896C9.94647 11.3875 10.1456 11.2194 10.2854 11.0059C10.4253 10.7923 10.4999 10.5426 10.5 10.2874V2.625H18.375V10.2874C18.3751 10.5426 18.4497 10.7923 18.5896 11.0059C18.7295 11.2194 18.9286 11.3875 19.1625 11.4896C21.9278 12.7055 24.1222 14.9347 25.2945 17.7188C24.3972 17.8192 23.5266 18.0863 22.7273 18.5063C21.998 18.9092 21.174 19.1091 20.3411 19.0851C19.5077 19.1096 18.683 18.9092 17.9537 18.5049C16.8714 17.9325 15.6616 17.6439 14.4375 17.6663C13.2115 17.6422 11.9996 17.9308 10.9161 18.5049C10.1877 18.9078 9.36457 19.1077 8.53257 19.0838C7.69888 19.1095 6.87367 18.91 6.14382 18.5063C5.34596 18.0862 4.47658 17.8191 3.58051 17.7188C4.75283 14.9347 6.94721 12.7055 9.71251 11.4896ZM14.4375 34.125C12.7126 34.138 11.0061 33.7702 9.43973 33.048C7.87331 32.3257 6.48555 31.2667 5.37543 29.9465C4.2653 28.6263 3.46015 27.0774 3.0174 25.4102C2.57465 23.7431 2.5052 21.9988 2.81401 20.3018C3.58012 20.309 4.33275 20.5042 5.00589 20.8701C6.08902 21.444 7.30046 21.7326 8.52601 21.7088C9.75156 21.7326 10.963 21.444 12.0461 20.8701C12.7769 20.466 13.6029 20.2661 14.4375 20.2912C15.2704 20.2672 16.0944 20.4671 16.8236 20.8701C17.9081 21.4443 19.1209 21.7329 20.3477 21.7088C21.5735 21.7326 22.7853 21.4445 23.8691 20.8714C24.5442 20.5043 25.2992 20.3087 26.0676 20.3018C26.3765 21.9994 26.3069 23.7442 25.8638 25.4118C25.4207 27.0794 24.6149 28.6287 23.5041 29.949C22.3932 31.2694 21.0046 32.3282 19.4374 33.0501C17.8702 33.7719 16.1629 34.139 14.4375 34.125Z" fill="#3B7E72" style="fill:#3B7E72;fill:color(display-p3 0.2314 0.4941 0.4471);fill-opacity:1;"/>
</svg>
