<svg width="60" height="74" viewBox="0 0 60 74" fill="none" xmlns="http://www.w3.org/2000/svg">
<path fill-rule="evenodd" clip-rule="evenodd" d="M30.0307 73.9175C3.26501 73.9175 -2.58874 55.7654 0.921734 36.7022C4.43221 17.6389 16.5613 0 30.0307 0C43.5001 0 55.789 16.4352 59.1353 36.7022C62.4815 56.974 56.7964 73.9175 30.0307 73.9175Z" fill="#A790DC" style="fill:#A790DC;fill:color(display-p3 0.6549 0.5647 0.8627);fill-opacity:1;"/>
<path fill-rule="evenodd" clip-rule="evenodd" d="M30.2502 10.0637H23.5266C16.5189 10.0637 10.8383 16.2023 10.8383 23.7749C10.8383 31.3474 16.5189 37.486 23.5266 37.486H30.2502C37.2578 37.486 42.9385 31.3474 42.9385 23.7749C42.9385 16.1975 37.2578 10.0637 30.2502 10.0637Z" fill="#7F65BB" style="fill:#7F65BB;fill:color(display-p3 0.4980 0.3961 0.7333);fill-opacity:1;"/>
<path fill-rule="evenodd" clip-rule="evenodd" d="M28.6755 8.86969H21.9519C14.9442 8.86969 9.26356 15.0083 9.26356 22.5808C9.26356 30.1534 14.9442 36.292 21.9519 36.292H28.6755C35.6831 36.292 41.3638 30.1534 41.3638 22.5808C41.3638 15.0083 35.6831 8.86969 28.6755 8.86969Z" fill="white" style="fill:white;fill-opacity:1;"/>
<path d="M34.3291 73.7279C34.6619 73.7279 34.9282 73.4353 34.9282 73.0804V65.8724C34.9282 63.0141 32.7758 60.6833 30.1263 60.6833H20.8464C18.8626 60.6833 17.2471 58.9377 17.2471 56.7939V54.8277C17.2471 54.468 16.9764 54.1802 16.648 54.1802C16.3152 54.1802 16.0489 54.4728 16.0489 54.8277V56.7939C16.0489 59.6522 18.2013 61.983 20.8508 61.983H30.1263C32.1101 61.983 33.7255 63.7286 33.7255 65.8724V73.0756C33.7255 73.4353 33.9962 73.7279 34.3291 73.7279Z" fill="#7F65BB" style="fill:#7F65BB;fill:color(display-p3 0.4980 0.3961 0.7333);fill-opacity:1;"/>
<path d="M16.6479 41.1117C16.9808 41.1117 17.2471 40.8191 17.2471 40.4642V40.0134C17.2471 38.2246 15.9024 36.7715 14.247 36.7715H0.91515C0.582298 36.7715 0.316017 37.064 0.316017 37.4189C0.316017 37.7786 0.586737 38.0663 0.91515 38.0663H14.247C15.2411 38.0663 16.0488 38.9392 16.0488 40.0134V40.4642C16.0488 40.8239 16.3151 41.1117 16.6479 41.1117Z" fill="#7F65BB" style="fill:#7F65BB;fill:color(display-p3 0.4980 0.3961 0.7333);fill-opacity:1;"/>
<path fill-rule="evenodd" clip-rule="evenodd" d="M22.5755 40.9475L14.6379 40.9987C11.1019 41.021 8.16852 44.0559 8.08316 47.7783C8.08316 47.7783 8.08316 47.7783 8.08391 47.7829C8.00294 51.5045 10.8001 54.5062 14.3361 54.4838L22.2737 54.4327C25.8097 54.4103 28.7431 51.3755 28.8284 47.653C28.8284 47.653 28.8284 47.653 28.8277 47.6484C28.9079 43.9223 26.1107 40.9205 22.5755 40.9475Z" fill="#0E101E" style="fill:#0E101E;fill:color(display-p3 0.0549 0.0627 0.1176);fill-opacity:1;"/>
<path fill-rule="evenodd" clip-rule="evenodd" d="M20.6886 40.794L12.9052 40.8462C9.32816 40.8678 6.35604 43.9446 6.27301 47.7099L6.27376 47.7145C6.19148 51.4843 9.0262 54.5213 12.6069 54.4942L20.3903 54.442C23.9674 54.4205 26.9358 51.3492 27.0233 47.583L27.0225 47.5784C27.1048 43.8085 24.2701 40.7715 20.6886 40.794Z" fill="white" style="fill:white;fill-opacity:1;"/>
<path d="M20.435 51.0947C22.0552 51.0515 23.3994 49.6378 23.4388 47.9134C23.4797 46.1696 22.1702 44.7605 20.5221 44.7714L20.4723 44.7724C20.4539 44.7715 20.4364 44.7752 20.418 44.7743C18.7979 44.8175 17.4537 46.2312 17.4143 47.9556C17.3734 49.6994 18.6828 51.1085 20.331 51.0977L20.3808 51.0966C20.3984 51.0929 20.4167 51.0938 20.435 51.0947ZM20.4915 46.0446C21.4764 46.036 22.258 46.8785 22.2348 47.9159C22.2123 48.958 21.3948 49.8057 20.4099 49.8142L20.3601 49.8152C19.3795 49.8228 18.598 48.9803 18.6212 47.9429C18.6437 46.9009 19.4685 46.0421 20.4461 46.0446L20.4915 46.0446Z" fill="black" style="fill:black;fill-opacity:1;"/>
<path d="M15.497 46.7789C15.817 46.7694 16.0859 46.5027 16.099 46.1664C16.1149 45.8202 15.8599 45.5343 15.5281 45.5274L10.9687 45.4223C10.6369 45.4153 10.3556 45.6893 10.3397 46.0356C10.3238 46.3818 10.5788 46.6677 10.9105 46.6746L15.47 46.7797C15.4788 46.7779 15.4875 46.7761 15.497 46.7789Z" fill="black" style="fill:black;fill-opacity:1;"/>
<path d="M15.3234 49.4409C15.6436 49.4311 15.9126 49.1632 15.9255 48.8258C15.9414 48.4783 15.6862 48.1918 15.3543 48.1852L12.7212 48.1278C12.3893 48.1212 12.1079 48.3964 12.0921 48.7439C12.0762 49.0913 12.3314 49.3778 12.6633 49.3844L15.2964 49.4418C15.3059 49.4446 15.3147 49.4427 15.3234 49.4409Z" fill="black" style="fill:black;fill-opacity:1;"/>
<path fill-rule="evenodd" clip-rule="evenodd" d="M25.7889 17.2128C25.0078 17.2128 24.3731 17.8986 24.3731 18.7426V19.2606C24.3731 20.1046 25.0078 20.7904 25.7889 20.7904C26.57 20.7904 27.2046 20.1046 27.2046 19.2606V18.7426C27.2046 17.8986 26.57 17.2128 25.7889 17.2128Z" fill="black" style="fill:black;fill-opacity:1;"/>
<path fill-rule="evenodd" clip-rule="evenodd" d="M15.7498 17.2128C14.9687 17.2128 14.3341 17.8986 14.3341 18.7427V19.2606C14.3341 20.1047 14.9687 20.7905 15.7498 20.7905C16.5309 20.7905 17.1655 20.1047 17.1655 19.2606V18.7427C17.1655 17.8986 16.5309 17.2128 15.7498 17.2128Z" fill="black" style="fill:black;fill-opacity:1;"/>
<path d="M21.9234 27.586C23.5389 27.586 24.8525 26.1665 24.8525 24.4208C24.8525 24.0611 24.5818 23.7734 24.2534 23.7734C23.9206 23.7734 23.6543 24.0659 23.6543 24.4208C23.6543 25.4519 22.8776 26.2912 21.9234 26.2912L19.2384 26.2672C18.2798 26.2576 17.5076 25.4375 17.481 24.4016C17.4721 24.0419 17.1925 23.7638 16.8641 23.7734C16.5312 23.783 16.2738 24.0803 16.2827 24.44C16.3271 26.1761 17.623 27.5477 19.2296 27.5668L21.9234 27.586Z" fill="black" style="fill:black;fill-opacity:1;"/>
</svg>
