<svg width="75" height="54" viewBox="0 0 75 54" fill="none" xmlns="http://www.w3.org/2000/svg">
<g clip-path="url(#clip0_854_1798)">
<path d="M35.5 10.9588L39.5 16.4588L42.5746 20.4821L34.6536 30.953H24.8536L18.3203 21.353L24.8536 11.753L35.5 10.9588Z" fill="white" stroke="#9F9493" style="fill:white;fill-opacity:1;stroke:#9F9493;stroke:color(display-p3 0.6235 0.5804 0.5765);stroke-opacity:1;" stroke-width="0.918033" stroke-linecap="round" stroke-linejoin="round"/>
</g>
<path d="M54.6455 0.459015L62.3991 10.6453L54.6455 20.8315H43.0149L35.2613 10.6453L43.0149 0.459015H54.6455ZM54.6455 41.204L62.3991 51.3903ZM17.0002 1.95881L24.7539 12.1451ZM43.0149 41.204L39.1381 46.2971ZM24.7539 31.0178L20.8771 36.1109ZM18.5 21.4588H10.3382ZM62.3991 31.0178H74.0296ZM54.6455 20.8315L62.3991 31.0178L54.6455 41.204H43.0149L35.2613 31.0178L43.0149 20.8315H54.6455Z" fill="white" style="fill:white;fill-opacity:1;"/>
<path d="M54.6455 20.8315L62.3991 10.6453L54.6455 0.459015H43.0149L35.2613 10.6453L43.0149 20.8315M54.6455 20.8315H43.0149M54.6455 20.8315L62.3991 31.0178M43.0149 20.8315L35.2613 31.0178L43.0149 41.204M54.6455 41.204L62.3991 51.3903M54.6455 41.204L62.3991 31.0178M54.6455 41.204H43.0149M17.0002 1.95881L24.7539 12.1451M43.0149 41.204L39.1381 46.2971M24.7539 31.0178L20.8771 36.1109M18.5 21.4588H10.3382M62.3991 31.0178H74.0296" stroke="#989898" style="stroke:#989898;stroke:color(display-p3 0.5961 0.5949 0.5949);stroke-opacity:1;" stroke-width="0.918033" stroke-linecap="round" stroke-linejoin="round"/>
<defs>
<clipPath id="clip0_854_1798">
<rect width="49" height="48" fill="white" style="fill:white;fill-opacity:1;" transform="translate(0 5.45882)"/>
</clipPath>
</defs>
</svg>
