<svg width="39" height="36" viewBox="0 0 39 36" fill="none" xmlns="http://www.w3.org/2000/svg">
<path d="M33.506 35.3315C32.0747 35.3294 30.7027 34.759 29.6917 33.7458C28.8633 32.9195 28.3208 31.8499 28.1435 30.6934C27.9661 29.5368 28.1632 28.3538 28.706 27.3173H28.7489L32.9917 21.103C33.056 21.0143 33.1396 20.9413 33.236 20.8893C33.3325 20.8374 33.4394 20.8079 33.5489 20.803C33.6509 20.814 33.7494 20.8463 33.838 20.898C33.9267 20.9497 34.0034 21.0196 34.0631 21.103L38.306 27.2744H38.3489C38.6846 27.8997 38.8917 28.5859 38.958 29.2925C39.0242 29.9992 38.9483 30.7119 38.7346 31.3887C38.4733 32.2606 38.0025 33.0552 37.3631 33.703C36.861 34.2175 36.2612 34.6266 35.5988 34.9063C34.9365 35.186 34.225 35.3305 33.506 35.3315ZM29.8203 27.9601C29.4219 28.7529 29.282 29.6506 29.4204 30.527C29.5588 31.4034 29.9684 32.2144 30.5917 32.8458C31.3764 33.6128 32.4301 34.0422 33.5274 34.0422C34.6247 34.0422 35.6784 33.6128 36.4631 32.8458C36.9408 32.3502 37.2934 31.7479 37.4917 31.0887C37.8182 30.0523 37.7259 28.9293 37.2346 27.9601L33.5489 22.603L29.8203 27.9601Z" fill="#183760" style="fill:#183760;fill:color(display-p3 0.0941 0.2157 0.3765);fill-opacity:1;"/>
<path d="M34.8772 32.9743C34.7423 32.9743 34.6108 32.9319 34.5013 32.853C34.3919 32.7741 34.31 32.6628 34.2674 32.5348C34.2247 32.4068 34.2234 32.2686 34.2636 32.1398C34.3038 32.011 34.3836 31.8981 34.4915 31.8172C34.6828 31.6757 34.8426 31.4959 34.9607 31.2893C35.0787 31.0828 35.1525 30.8538 35.1772 30.6172C35.223 30.1612 35.1011 29.7041 34.8344 29.3315C34.7273 29.2004 34.6763 29.0324 34.6923 28.8639C34.7083 28.6954 34.7902 28.54 34.9201 28.4315C34.9823 28.3726 35.0563 28.3277 35.1373 28.2998C35.2183 28.2719 35.3043 28.2617 35.3896 28.2698C35.4748 28.2779 35.5574 28.3042 35.6316 28.3469C35.7059 28.3895 35.7701 28.4476 35.8201 28.5172C36.0733 28.8357 36.2601 29.2018 36.3693 29.5937C36.4786 29.9857 36.5081 30.3956 36.4562 30.7992C36.4042 31.2028 36.2718 31.5918 36.0669 31.9434C35.8619 32.2949 35.5886 32.6017 35.2629 32.8458C35.1533 32.9322 35.0168 32.9777 34.8772 32.9743Z" fill="#183760" style="fill:#183760;fill:color(display-p3 0.0941 0.2157 0.3765);fill-opacity:1;"/>
<path d="M35.0059 13.2173L27.163 2.2887H27.1202L25.7059 0.274414C25.6036 0.132333 25.449 0.0367101 25.2762 0.00857961C25.1034 -0.0195508 24.9265 0.0221161 24.7844 0.124414C24.6424 0.226712 24.5467 0.381261 24.5186 0.554062C24.4905 0.726864 24.5321 0.903762 24.6344 1.04584L25.7487 2.54584L22.1916 5.07441L18.6344 7.64584H18.5916L14.6059 10.5601H14.563L12.5487 12.0173L2.39158 19.3458C1.13011 20.3164 0.295685 21.7395 0.064832 23.3143C-0.166021 24.8891 0.224812 26.4919 1.15464 27.7836C2.08447 29.0753 3.48036 29.9547 5.04697 30.2356C6.61358 30.5165 8.22802 30.1769 9.54872 29.2887L32.9059 12.4887L33.9773 13.9887C34.0346 14.0712 34.1118 14.138 34.2016 14.1829C34.2915 14.2278 34.3912 14.2495 34.4916 14.2458C34.6302 14.243 34.7647 14.1981 34.8773 14.1173C35.0049 14.0088 35.0885 13.8574 35.1122 13.6916C35.1359 13.5258 35.098 13.3571 35.0059 13.2173ZM8.7773 28.2173C8.26599 28.591 7.68577 28.8599 7.07008 29.0084C6.45439 29.1568 5.8154 29.182 5.18994 29.0824C4.56448 28.9828 3.96492 28.7604 3.4258 28.4281C2.88668 28.0957 2.41866 27.6599 2.04872 27.1458C1.45244 26.3217 1.12335 25.3344 1.10586 24.3173C1.10744 23.5479 1.29071 22.7897 1.64073 22.1046C1.99076 21.4194 2.49766 20.8266 3.12015 20.3744L5.17729 18.8744L18.5059 21.2316L8.7773 28.2173ZM19.963 20.203L6.63444 17.8458L12.8059 13.4316L15.1202 16.6458C15.1775 16.7283 15.2546 16.7951 15.3445 16.84C15.4343 16.885 15.534 16.9066 15.6344 16.903C15.7731 16.9001 15.9075 16.8553 16.0202 16.7744C16.1478 16.666 16.2313 16.5146 16.255 16.3488C16.2787 16.183 16.2409 16.0142 16.1487 15.8744L13.8344 12.6601L14.8202 11.9744L15.763 13.303C15.8273 13.3917 15.9108 13.4647 16.0073 13.5166C16.1038 13.5686 16.2107 13.5981 16.3202 13.603C16.383 13.6055 16.4457 13.5954 16.5046 13.5734C16.5635 13.5513 16.6173 13.5176 16.663 13.4744C16.7339 13.427 16.7946 13.366 16.8417 13.2949C16.8888 13.2238 16.9212 13.1441 16.9372 13.0603C16.9531 12.9766 16.9523 12.8905 16.9346 12.807C16.917 12.7236 16.8829 12.6445 16.8344 12.5744L15.8487 11.203L16.8344 10.5173L19.1487 13.7316C19.2061 13.814 19.2832 13.8808 19.3731 13.9257C19.4629 13.9707 19.5626 13.9923 19.663 13.9887C19.8016 13.9858 19.9361 13.941 20.0487 13.8601C20.1764 13.7517 20.2599 13.6003 20.2836 13.4345C20.3073 13.2687 20.2695 13.1 20.1773 12.9601L17.863 9.74584L18.8487 9.06013L19.8344 10.3887C19.8785 10.4859 19.9516 10.5669 20.0438 10.6207C20.1359 10.6744 20.2425 10.6982 20.3487 10.6887C20.4116 10.6912 20.4743 10.6811 20.5331 10.6591C20.592 10.637 20.6459 10.6033 20.6916 10.5601C20.7625 10.5127 20.8232 10.4517 20.8703 10.3806C20.9173 10.3095 20.9498 10.2298 20.9657 10.146C20.9817 10.0623 20.9808 9.97617 20.9632 9.89276C20.9456 9.80934 20.9115 9.73026 20.863 9.66013L19.8773 8.33156L22.4487 6.4887L28.1059 14.3316L19.963 20.203ZM29.1344 13.603L23.4773 5.71727L26.4773 3.57441L32.1344 11.4173L29.1344 13.603Z" fill="#183760" style="fill:#183760;fill:color(display-p3 0.0941 0.2157 0.3765);fill-opacity:1;"/>
</svg>
