<svg width="60" height="74" viewBox="0 0 60 74" fill="none" xmlns="http://www.w3.org/2000/svg">
<path fill-rule="evenodd" clip-rule="evenodd" d="M29.9693 73.9175C56.735 73.9175 62.5887 55.7654 59.0783 36.7022C55.5678 17.6389 43.4387 0 29.9693 0C16.4999 0 4.211 16.4352 0.864736 36.7022C-2.48153 56.974 3.20358 73.9175 29.9693 73.9175Z" fill="#A790DC" style="fill:#A790DC;fill:color(display-p3 0.6549 0.5647 0.8627);fill-opacity:1;"/>
<path fill-rule="evenodd" clip-rule="evenodd" d="M29.7498 10.0637H36.4734C43.4811 10.0637 49.1617 16.2023 49.1617 23.7749C49.1617 31.3474 43.4811 37.486 36.4734 37.486H29.7498C22.7422 37.486 17.0615 31.3474 17.0615 23.7749C17.0615 16.1975 22.7422 10.0637 29.7498 10.0637Z" fill="#7F65BB" style="fill:#7F65BB;fill:color(display-p3 0.4980 0.3961 0.7333);fill-opacity:1;"/>
<path fill-rule="evenodd" clip-rule="evenodd" d="M31.3245 8.86969H38.0481C45.0558 8.86969 50.7364 15.0083 50.7364 22.5808C50.7364 30.1534 45.0558 36.292 38.0481 36.292H31.3245C24.3169 36.292 18.6362 30.1534 18.6362 22.5808C18.6362 15.0083 24.3169 8.86969 31.3245 8.86969Z" fill="white" style="fill:white;fill-opacity:1;"/>
<path d="M25.6709 73.7279C25.3381 73.7279 25.0718 73.4353 25.0718 73.0804V65.8724C25.0718 63.0141 27.2242 60.6833 29.8737 60.6833H39.1536C41.1374 60.6833 42.7529 58.9377 42.7529 56.7939V54.8277C42.7529 54.468 43.0236 54.1802 43.352 54.1802C43.6848 54.1802 43.9511 54.4728 43.9511 54.8277V56.7939C43.9511 59.6522 41.7987 61.983 39.1492 61.983H29.8737C27.8899 61.983 26.2745 63.7286 26.2745 65.8724V73.0756C26.2745 73.4353 26.0038 73.7279 25.6709 73.7279Z" fill="#7F65BB" style="fill:#7F65BB;fill:color(display-p3 0.4980 0.3961 0.7333);fill-opacity:1;"/>
<path d="M43.3521 41.1117C43.0192 41.1117 42.7529 40.8191 42.7529 40.4642V40.0134C42.7529 38.2246 44.0976 36.7715 45.753 36.7715H59.0849C59.4177 36.7715 59.684 37.064 59.684 37.4189C59.684 37.7786 59.4133 38.0663 59.0849 38.0663H45.753C44.7589 38.0663 43.9512 38.9392 43.9512 40.0134V40.4642C43.9512 40.8239 43.6849 41.1117 43.3521 41.1117Z" fill="#7F65BB" style="fill:#7F65BB;fill:color(display-p3 0.4980 0.3961 0.7333);fill-opacity:1;"/>
<path fill-rule="evenodd" clip-rule="evenodd" d="M37.4245 40.9475L45.3621 40.9987C48.8981 41.021 51.8315 44.0559 51.9168 47.7783C51.9168 47.7783 51.9168 47.7783 51.9161 47.7829C51.9971 51.5045 49.1999 54.5062 45.6639 54.4838L37.7263 54.4327C34.1903 54.4103 31.2569 51.3755 31.1716 47.653C31.1716 47.653 31.1716 47.653 31.1723 47.6484C31.0921 43.9223 33.8893 40.9205 37.4245 40.9475Z" fill="#0E101E" style="fill:#0E101E;fill:color(display-p3 0.0549 0.0627 0.1176);fill-opacity:1;"/>
<path fill-rule="evenodd" clip-rule="evenodd" d="M39.3114 40.794L47.0948 40.8462C50.6718 40.8678 53.644 43.9446 53.727 47.7099L53.7262 47.7145C53.8085 51.4843 50.9738 54.5213 47.3931 54.4942L39.6097 54.442C36.0326 54.4205 33.0642 51.3492 32.9767 47.583L32.9775 47.5784C32.8952 43.8085 35.7299 40.7715 39.3114 40.794Z" fill="white" style="fill:white;fill-opacity:1;"/>
<path d="M39.565 51.0947C37.9448 51.0515 36.6006 49.6378 36.5612 47.9134C36.5203 46.1696 37.8298 44.7605 39.4779 44.7714L39.5277 44.7724C39.5461 44.7715 39.5636 44.7752 39.582 44.7743C41.2021 44.8175 42.5463 46.2312 42.5857 47.9556C42.6266 49.6994 41.3172 51.1085 39.669 51.0977L39.6192 51.0966C39.6016 51.0929 39.5833 51.0938 39.565 51.0947ZM39.5085 46.0446C38.5236 46.036 37.742 46.8785 37.7652 47.9159C37.7877 48.958 38.6052 49.8057 39.5901 49.8142L39.6399 49.8152C40.6205 49.8228 41.402 48.9803 41.3788 47.9429C41.3563 46.9009 40.5315 46.0421 39.5539 46.0446L39.5085 46.0446Z" fill="black" style="fill:black;fill-opacity:1;"/>
<path d="M44.503 46.7789C44.183 46.7694 43.9141 46.5027 43.901 46.1664C43.8851 45.8202 44.1401 45.5343 44.4719 45.5274L49.0313 45.4223C49.3631 45.4153 49.6444 45.6893 49.6603 46.0356C49.6762 46.3818 49.4212 46.6677 49.0895 46.6746L44.53 46.7797C44.5212 46.7779 44.5125 46.7761 44.503 46.7789Z" fill="black" style="fill:black;fill-opacity:1;"/>
<path d="M44.6766 49.4409C44.3564 49.4311 44.0874 49.1632 44.0745 48.8258C44.0586 48.4783 44.3138 48.1918 44.6457 48.1852L47.2788 48.1278C47.6107 48.1212 47.8921 48.3964 47.9079 48.7439C47.9238 49.0913 47.6686 49.3778 47.3367 49.3844L44.7036 49.4418C44.6941 49.4446 44.6853 49.4427 44.6766 49.4409Z" fill="black" style="fill:black;fill-opacity:1;"/>
<path fill-rule="evenodd" clip-rule="evenodd" d="M34.2107 17.2128C34.9917 17.2128 35.6264 17.8986 35.6264 18.7426V19.2606C35.6264 20.1046 34.9917 20.7904 34.2107 20.7904C33.4296 20.7904 32.7949 20.1046 32.7949 19.2606V18.7426C32.7949 17.8986 33.4296 17.2128 34.2107 17.2128Z" fill="black" style="fill:black;fill-opacity:1;"/>
<path fill-rule="evenodd" clip-rule="evenodd" d="M44.2497 17.2128C45.0308 17.2128 45.6654 17.8986 45.6654 18.7427V19.2606C45.6654 20.1047 45.0308 20.7905 44.2497 20.7905C43.4686 20.7905 42.834 20.1047 42.834 19.2606V18.7427C42.834 17.8986 43.4686 17.2128 44.2497 17.2128Z" fill="black" style="fill:black;fill-opacity:1;"/>
<path d="M38.0766 27.586C36.4611 27.586 35.1475 26.1665 35.1475 24.4208C35.1475 24.0611 35.4182 23.7734 35.7466 23.7734C36.0794 23.7734 36.3457 24.0659 36.3457 24.4208C36.3457 25.4519 37.1224 26.2912 38.0766 26.2912L40.7616 26.2672C41.7202 26.2576 42.4924 25.4375 42.519 24.4016C42.5279 24.0419 42.8075 23.7638 43.1359 23.7734C43.4688 23.783 43.7262 24.0803 43.7173 24.44C43.6729 26.1761 42.377 27.5477 40.7704 27.5668L38.0766 27.586Z" fill="black" style="fill:black;fill-opacity:1;"/>
</svg>
