<?xml version="1.0" encoding="UTF-8"?>
<svg xmlns="http://www.w3.org/2000/svg" xmlns:xlink="http://www.w3.org/1999/xlink" width="10px" height="10px" viewBox="0 0 10 10" version="1.1">
<g id="surface1">
<path style=" stroke:none;fill-rule:nonzero;fill:rgb(25.882354%,52.156866%,95.686275%);fill-opacity:1;" d="M 9.878906 5.09375 C 9.878906 4.683594 9.847656 4.386719 9.777344 4.074219 L 5.097656 4.074219 L 5.097656 5.925781 L 7.84375 5.925781 C 7.789062 6.382812 7.488281 7.074219 6.824219 7.539062 L 6.816406 7.601562 L 8.292969 8.75 L 8.398438 8.757812 C 9.339844 7.890625 9.878906 6.609375 9.878906 5.09375 "/>
<path style=" stroke:none;fill-rule:nonzero;fill:rgb(20.392157%,65.882355%,32.549021%);fill-opacity:1;" d="M 5.097656 9.964844 C 6.441406 9.964844 7.570312 9.523438 8.398438 8.757812 L 6.824219 7.539062 C 6.402344 7.835938 5.839844 8.039062 5.097656 8.039062 C 3.78125 8.039062 2.660156 7.167969 2.261719 5.96875 L 2.203125 5.972656 L 0.667969 7.164062 L 0.644531 7.21875 C 1.464844 8.847656 3.148438 9.964844 5.097656 9.964844 "/>
<path style=" stroke:none;fill-rule:nonzero;fill:rgb(98.431373%,73.725492%,1.960784%);fill-opacity:1;" d="M 2.261719 5.96875 C 2.15625 5.660156 2.097656 5.324219 2.097656 4.984375 C 2.097656 4.640625 2.15625 4.308594 2.257812 3.996094 L 2.253906 3.929688 L 0.695312 2.722656 L 0.644531 2.746094 C 0.308594 3.421875 0.113281 4.179688 0.113281 4.984375 C 0.113281 5.785156 0.308594 6.542969 0.644531 7.21875 L 2.261719 5.96875 "/>
<path style=" stroke:none;fill-rule:nonzero;fill:rgb(92.156863%,26.274511%,20.784314%);fill-opacity:1;" d="M 5.097656 1.925781 C 6.03125 1.925781 6.664062 2.332031 7.023438 2.667969 L 8.429688 1.296875 C 7.566406 0.492188 6.441406 0 5.097656 0 C 3.148438 0 1.464844 1.117188 0.644531 2.746094 L 2.257812 3.996094 C 2.660156 2.796875 3.78125 1.925781 5.097656 1.925781 "/>
</g>
</svg>
